<?xml version="1.0" encoding="UTF-8" standalone="no"?>
<svg
   xmlns:dc="http://purl.org/dc/elements/1.1/"
   xmlns:cc="http://creativecommons.org/ns#"
   xmlns:rdf="http://www.w3.org/1999/02/22-rdf-syntax-ns#"
   xmlns:svg="http://www.w3.org/2000/svg"
   xmlns="http://www.w3.org/2000/svg"
   id="svg8"
   version="1.1"
   viewBox="0 0 20.372917 21.960418"
   height="83"
   width="77">
  <defs
     id="defs2" />
  <metadata
     id="metadata5">
    <rdf:RDF>
      <cc:Work
         rdf:about="">
        <dc:format>image/svg+xml</dc:format>
        <dc:type
           rdf:resource="http://purl.org/dc/dcmitype/StillImage" />
        <dc:title></dc:title>
      </cc:Work>
    </rdf:RDF>
  </metadata>
  <g
     transform="translate(0,-275.03958)"
     id="layer1">
    <g
       transform="matrix(0.12688443,0,0,0.12688443,-3.2941815,267.10025)"
       id="g73">
      <path
         id="path77"
         d="m 57.467953,234.70221 c -0.07263,-0.18928 -0.100676,-4.39148 -0.06232,-9.33823 l 0.06974,-8.99408 1.684133,-0.0796 c 1.268608,-0.0599 1.801651,0.0268 2.160439,0.35149 0.424781,0.38442 0.543121,0.38868 1.093992,0.0394 2.506231,-1.58915 5.947211,-0.0764 6.993839,3.07473 0.654976,1.97194 0.586213,5.31091 -0.143335,6.96017 -1.25294,2.83248 -3.605012,4.04216 -6.141696,3.1587 -0.632201,-0.22019 -1.234588,-0.40207 -1.338638,-0.40418 -0.10405,-0.002 -0.223113,1.21654 -0.264584,2.70812 l -0.0754,2.71198 -1.922055,0.0778 c -1.391621,0.0563 -1.958501,-0.0172 -2.054119,-0.26634 z m 7.449799,-8.82213 c 0.990711,-1.51202 0.651052,-5.29931 -0.545579,-6.08338 -0.769345,-0.50409 -1.861227,-0.27765 -2.405052,0.49876 -0.548121,0.78256 -0.54198,4.86884 0.0085,5.65476 0.694479,0.99151 2.271139,0.95392 2.94213,-0.0701 z m 33.543045,6.65967 c -0.07738,-0.20163 -0.103405,-0.88624 -0.05784,-1.52135 l 0.08284,-1.15475 h 5.556253 5.55625 l 0.0793,1.52135 0.0794,1.52136 h -5.57776 c -4.50925,0 -5.60471,-0.0702 -5.718438,-0.36661 z m -50.907294,-2.52694 c -2.168993,-0.43765 -3.974909,-2.01269 -4.654825,-4.05973 -0.547298,-1.64776 -0.413356,-5.20838 0.243091,-6.462 1.328934,-2.53786 4.04118,-3.81902 7.014713,-3.31348 2.10318,0.35757 3.500109,1.26537 4.459999,2.89836 0.685953,1.16695 0.74223,1.47333 0.74223,4.04082 0,2.5384 -0.06134,2.88246 -0.710875,3.98731 -0.903171,1.53629 -2.357834,2.54554 -4.162147,2.88772 -1.546333,0.29326 -1.581665,0.29351 -2.932186,0.021 z m 3.216158,-4.5981 c 0.454314,-1.07631 0.458092,-3.5107 0.0071,-4.57872 -0.667575,-1.58093 -2.419596,-1.69834 -3.383817,-0.22676 -0.564377,0.86136 -0.646631,3.61748 -0.143528,4.80948 0.680209,1.61163 2.839318,1.60917 3.520241,-0.004 z m 25.709784,4.57512 c -3.58416,-0.72697 -5.653362,-3.68565 -5.291055,-7.56551 0.180967,-1.93792 0.615439,-3.08157 1.626007,-4.28008 2.154465,-2.55515 6.546715,-2.81926 9.017021,-0.54221 1.370163,1.26297 1.97,2.83348 1.97,5.15793 v 1.66558 l -3.902604,0.0732 c -3.626218,0.068 -3.902604,0.10867 -3.902604,0.57383 0,1.42593 2.751074,2.02031 4.52007,0.97658 l 0.981906,-0.57934 0.887034,0.85974 c 1.110863,1.0767 1.116883,1.61569 0.02714,2.42952 -1.476888,1.10296 -3.991284,1.62454 -5.93291,1.23073 z m 2.809012,-8.44566 c 0.550468,-0.34828 -0.0399,-1.53579 -0.932161,-1.87502 -1.178221,-0.44796 -2.795924,0.68747 -2.410497,1.69187 0.125066,0.32592 0.511278,0.43184 1.563462,0.42879 0.768551,-0.002 1.569189,-0.11277 1.779196,-0.24564 z m 6.153377,8.13427 c -0.450961,-0.45096 -0.450961,-12.67237 0,-13.12333 0.179372,-0.17937 1.038625,-0.3175 1.975067,-0.3175 1.379247,0 1.704478,0.0877 1.936959,0.52205 0.276101,0.5159 0.292584,0.51512 1.398371,-0.0661 1.501211,-0.78913 3.839014,-0.79977 4.882152,-0.0222 1.620552,1.20794 1.784395,1.85568 1.883717,7.44719 0.06626,3.73044 0.0042,5.20692 -0.230836,5.4901 -0.400746,0.48288 -3.440578,0.53721 -3.90793,0.0699 -0.221456,-0.22145 -0.3175,-1.64681 -0.3175,-4.71193 0,-4.99005 -0.124947,-5.39515 -1.664065,-5.39515 -1.71785,0 -1.775518,0.17035 -1.775518,5.24469 0,3.18214 -0.0952,4.64009 -0.3175,4.86239 -0.177546,0.17755 -1.028935,0.3175 -1.931458,0.3175 -0.902523,0 -1.753913,-0.13995 -1.931459,-0.3175 z m 25.640406,-0.0447 c -0.21425,-0.25815 -0.28058,-2.86233 -0.23084,-9.06198 l 0.0698,-8.69973 h 6.08541 6.08542 v 1.5875 1.5875 l -3.70417,0.1323 -3.70416,0.13229 -0.0776,1.91024 -0.0776,1.91023 3.38486,0.0741 3.38487,0.0741 0.0786,1.64564 0.0786,1.64565 -3.38586,0.0742 -3.38585,0.0741 -0.13229,3.30729 c -0.0728,1.81901 -0.22862,3.45612 -0.34635,3.63802 -0.30559,0.47218 -3.72651,0.44602 -4.12283,-0.0315 z m 14.02291,0 c -0.21424,-0.25815 -0.28058,-2.86233 -0.23083,-9.06198 l 0.0698,-8.69973 h 5.02709 c 4.67753,0 5.10295,0.0406 6.11828,0.58372 2.1559,1.15325 3.22928,3.24844 2.87489,5.61169 -0.24235,1.61609 -0.78295,2.63051 -1.94246,3.64497 l -0.9653,0.84455 1.70146,3.2718 c 1.07865,2.07417 1.63858,3.43569 1.52966,3.71952 -0.1399,0.36457 -0.53423,0.44771 -2.12347,0.44771 -2.34481,0 -2.27814,0.0588 -4.12399,-3.63802 l -1.3541,-2.71198 h -1.05593 -1.05592 v 2.66323 c 0,3.55159 -0.0865,3.68677 -2.35816,3.68677 -1.20953,0 -1.91016,-0.12022 -2.11102,-0.36225 z m 8.53454,-10.24028 c 0.56078,-0.44111 0.69714,-0.77178 0.69714,-1.69049 0,-0.73028 -0.18238,-1.36734 -0.50578,-1.76673 -0.44231,-0.54624 -0.73283,-0.62462 -2.3151,-0.62462 h -1.80933 l -0.0764,2.3151 -0.0764,2.31511 h 1.69441 c 1.31356,0 1.85111,-0.12326 2.39155,-0.54837 z m 8.13421,10.24028 c -0.21424,-0.25815 -0.28058,-2.86233 -0.23083,-9.06198 l 0.0698,-8.69973 6.29661,-0.071 6.2966,-0.071 -0.0789,1.65846 -0.0789,1.65846 -3.83646,0.1323 -3.83646,0.13229 v 1.71979 1.71979 l 3.25356,0.0744 3.25356,0.0744 -0.0786,1.6454 -0.0786,1.6454 -3.24114,0.0743 -3.24115,0.0743 v 1.96916 1.96916 l 3.90261,0.0732 3.9026,0.0732 0.0806,1.56295 c 0.0552,1.07129 -0.028,1.63183 -0.26458,1.78189 -0.18985,0.12041 -2.92021,0.22075 -6.06747,0.22298 -4.5244,0.003 -5.78522,-0.0718 -6.02293,-0.3582 z m 14.31369,0.0316 c -0.248,-0.29884 -0.30999,-2.49199 -0.25702,-9.09355 l 0.0698,-8.69973 3.67607,-0.0739 c 4.89119,-0.0983 6.04339,0.22599 8.09579,2.27839 1.9812,1.9812 2.52166,3.47834 2.4994,6.9236 -0.0128,1.98423 -0.13701,2.78263 -0.58974,3.79135 -0.93126,2.07493 -2.03962,3.254 -3.93687,4.18801 -1.65648,0.81548 -1.9043,0.85919 -5.48274,0.96684 -3.09371,0.0931 -3.8049,0.044 -4.07469,-0.28105 z m 8.01024,-4.16289 c 1.12194,-1.054 1.54013,-2.60426 1.40855,-5.22153 -0.1796,-3.57234 -1.09934,-4.83975 -3.57423,-4.92536 l -1.26928,-0.0439 -0.0716,5.52332 -0.0716,5.52332 1.46271,-0.1213 c 1.05116,-0.0872 1.64638,-0.29384 2.11548,-0.73454 z M 56.787231,204.89355 C 55.856024,204.18411 53.954795,202.547 52.56228,201.25553 38.366824,188.09016 29.991825,171.8496 27.269494,152.20845 c -0.636147,-4.58969 -0.63343,-14.97709 0.0051,-19.57917 2.511664,-18.10174 9.812345,-33.245066 22.114202,-45.870043 13.082963,-13.4266 29.374249,-21.393471 48.567808,-23.750942 3.905426,-0.479688 14.078286,-0.403271 18.256246,0.137139 9.38979,1.214546 17.05358,3.498444 25.4,7.569495 16.13785,7.871396 29.13316,20.952152 36.93299,37.175811 4.97714,10.35248 7.44381,20.52354 7.82829,32.27916 0.70982,21.70338 -7.59497,42.79781 -22.98636,58.38609 -2.82081,2.8569 -7.25965,6.74537 -8.39171,7.35123 -0.46167,0.24708 -1.26838,-0.72759 -7.94874,-9.60368 -5.23872,-6.96061 -7.38511,-10.00848 -7.26628,-10.31813 0.0927,-0.24171 0.24519,-0.44014 0.33877,-0.44097 0.36484,-0.003 5.42674,-4.74011 7.20765,-6.74489 3.08446,-3.47218 4.24125,-5.13114 3.95322,-5.66933 -0.30688,-0.57342 -3.62359,-2.88019 -5.50406,-3.82808 -4.14032,-2.08701 -10.07566,-3.25016 -15.14397,-2.96775 -9.85453,0.54909 -20.56472,5.17958 -27.40148,11.84687 l -2.39836,2.3389 -1.239311,-0.42227 c -1.173633,-0.3999 -1.332833,-0.39292 -3.004015,0.13164 -2.150724,0.67508 -2.192692,0.67527 -4.28425,0.0196 -1.682014,-0.52724 -1.683244,-0.52724 -3.401308,0.003 -2.11764,0.65407 -2.265447,0.65444 -4.280138,0.0108 -1.615861,-0.51621 -1.639872,-0.51623 -3.275613,-0.003 -2.05936,0.64562 -2.387314,0.64552 -4.412094,-0.001 l -1.642586,-0.52474 -1.91711,0.56403 -1.917112,0.56402 -1.810996,-0.56845 c -2.159151,-0.67773 -2.483043,-0.69664 -2.690093,-0.15708 -0.157943,0.41159 2.517685,3.08512 5.132157,5.12811 0.745302,0.5824 1.122728,1.06563 1.049877,1.34421 -0.106277,0.40643 -14.373679,19.57466 -14.569902,19.57466 -0.0495,0 -0.8519,-0.58045 -1.783106,-1.28989 z m 16.781985,-26.26468 1.927476,-0.56707 1.837259,0.56427 1.837259,0.56427 1.677217,-0.52636 c 2.071354,-0.65006 2.232089,-0.65012 4.262057,-0.002 l 1.642586,0.52474 1.912437,-0.56265 1.912435,-0.56265 1.944563,0.60184 1.944563,0.60183 1.804982,-0.59174 c 1.617099,-0.53015 1.94505,-0.55814 3.150571,-0.26894 1.266779,0.30389 1.383349,0.28732 1.990319,-0.28289 0.3546,-0.33313 0.64456,-0.67424 0.64436,-0.75801 -5.7e-4,-0.2374 -3.061312,-1.07839 -3.924615,-1.07839 -0.425091,0 -1.225045,0.18892 -1.777675,0.41982 -1.100008,0.45962 -2.425721,0.40974 -4.417655,-0.1662 -1.066747,-0.30843 -1.446795,-0.30815 -2.513542,0.002 -1.980247,0.5755 -3.565445,0.63096 -4.68336,0.16387 -1.256228,-0.52489 -2.275266,-0.53144 -3.493386,-0.0225 -0.522422,0.21828 -1.474922,0.39688 -2.116667,0.39688 -0.641746,0 -1.594246,-0.1786 -2.116666,-0.39688 -0.522423,-0.21828 -1.277535,-0.39687 -1.67803,-0.39687 -0.400494,0 -1.23436,0.17859 -1.853036,0.39687 -0.618675,0.21828 -1.511643,0.39688 -1.984375,0.39688 -0.472731,0 -1.365699,-0.1786 -1.984374,-0.39688 -1.440818,-0.50835 -2.141062,-0.49963 -3.87935,0.0483 -1.519841,0.47909 -1.705237,0.79521 -0.895919,1.52763 0.45189,0.40895 0.674994,0.42935 1.785937,0.16331 1.087086,-0.26032 1.49769,-0.23033 2.85704,0.20872 2.047232,0.66121 1.934879,0.66125 4.187589,-0.002 z m -7.932565,-3.53397 c 0.52242,-0.21828 1.41496,-0.39687 1.98342,-0.39687 0.568462,0 1.539756,0.17859 2.158431,0.39687 1.436457,0.50682 2.331527,0.5012 3.584868,-0.0225 1.117891,-0.46708 2.703116,-0.41163 4.68322,0.16383 1.124614,0.32684 1.405438,0.31463 2.673043,-0.11624 1.53166,-0.52063 2.90277,-0.48824 4.999874,0.11811 1.12345,0.32483 1.407178,0.31216 2.677099,-0.11949 1.510646,-0.51349 2.621176,-0.48494 4.731374,0.12164 1.062064,0.30529 1.451478,0.30529 2.513541,0 2.021454,-0.58107 3.14588,-0.62444 4.472209,-0.17252 0.68445,0.23323 1.55922,0.42404 1.94394,0.42404 1.25897,0 3.27133,-0.85769 5.29166,-2.25537 4.32952,-2.99517 8.84838,-5.17171 13.62604,-6.56306 2.47782,-0.72159 6.53896,-1.50032 7.82425,-1.50032 0.40892,0 0.83362,-0.14584 0.94378,-0.32409 0.18374,-0.2973 0.83928,-17.5831 0.87427,-23.0537 0.0122,-1.90315 -0.0545,-2.31673 -0.35511,-2.20139 -0.20356,0.0781 -3.10967,2.05539 -6.45803,4.39394 -3.34836,2.33855 -6.2647,4.25191 -6.48075,4.25191 -0.86737,0 -0.66129,-0.82959 0.57446,-2.31254 2.19071,-2.62893 6.70048,-7.22549 7.48924,-7.63337 0.47706,-0.2467 1.36347,-0.36943 2.40504,-0.33298 1.64234,0.0575 2.46045,-0.18959 3.0734,-0.92816 0.25455,-0.30671 0.16975,-2.16732 -0.40465,-8.87874 -0.53247,-6.22154 -0.64819,-8.56921 -0.43299,-8.78441 0.74468,-0.74468 1.35673,0.52954 3.2295,6.72344 0.739,2.44412 1.34364,4.76349 1.34364,5.15415 0,0.39066 -0.4236,1.39658 -0.94133,2.23537 -0.75377,1.2212 -0.92511,1.74246 -0.8599,2.61615 l 0.0814,1.09108 7.80521,3.63406 c 7.58607,3.53203 8.70653,4.22703 7.53771,4.67555 -0.93198,0.35764 -11.40497,-2.05487 -12.43387,-2.8642 -0.3727,-0.29316 -0.96907,-1.10816 -1.32528,-1.81111 -0.6289,-1.24107 -1.09304,-1.76218 -1.34505,-1.51016 -0.0676,0.0676 0.0714,5.82431 0.30902,12.79264 0.30082,8.82324 0.52423,12.7287 0.73587,12.86407 0.16714,0.10691 0.67525,0.19621 1.12913,0.19844 1.56043,0.008 5.41357,0.80477 7.67076,1.58687 2.75648,0.9551 5.34436,2.32868 7.67319,4.07272 l 1.75296,1.31278 0.50335,-0.63989 c 0.98221,-1.24863 4.71253,-9.1484 5.61202,-11.88468 5.13103,-15.60872 3.11524,-32.61599 -5.51715,-46.54844 -3.08704,-4.98239 -8.90542,-11.32563 -13.65524,-14.887036 -10.56259,-7.919801 -23.92683,-11.859137 -36.81375,-10.851482 -10.97339,0.858033 -20.911758,4.55627 -29.339676,10.917792 -2.8257,2.132886 -8.645826,7.947116 -10.761768,10.750876 -8.236595,10.91402 -12.20049,24.82073 -10.894306,38.22099 0.946658,9.71183 4.980311,20.50209 10.072272,26.9439 0.935461,1.18345 1.161317,1.3284 2.069904,1.3284 0.560927,0 1.447303,-0.1786 1.969725,-0.39688 z m 16.893963,-3.64137 c -0.152496,-0.18375 -0.315902,-0.80883 -0.363128,-1.38906 -0.08554,-1.051 -0.09255,-1.05713 -1.860928,-1.62454 -0.976286,-0.31325 -2.12576,-0.81927 -2.554385,-1.12448 -0.990576,-0.70535 -0.984854,-0.70601 -2.060969,0.23883 -1.024065,0.89914 -1.221759,0.94826 -1.665333,0.41379 -0.364238,-0.43889 -0.107921,-1.0657 0.755208,-1.84682 0.70889,-0.64154 0.703366,-0.6938 -0.228669,-2.16347 -0.430289,-0.67849 -0.925485,-1.87325 -1.100436,-2.65502 l -0.318095,-1.4214 h -1.116126 c -1.191247,0 -1.877719,-0.50443 -1.615697,-1.18725 0.09919,-0.25849 0.507939,-0.40168 1.154081,-0.4043 1.334394,-0.005 1.551974,-0.18458 1.922843,-1.58345 0.173612,-0.65484 0.688173,-1.87251 1.143468,-2.70594 l 0.82781,-1.51532 -0.860274,-0.88758 c -0.568772,-0.58682 -0.802886,-1.03713 -0.690906,-1.32895 0.249618,-0.65049 0.856577,-0.54003 1.85643,0.33785 l 0.887486,0.77922 1.222058,-0.68301 c 0.672131,-0.37567 1.895821,-0.89077 2.719316,-1.14469 l 1.497258,-0.46167 0.132292,-1.28818 c 0.119375,-1.1624 0.196882,-1.28819 0.79375,-1.28819 0.597641,0 0.674222,0.12518 0.79375,1.2974 l 0.132292,1.29739 1.587499,0.43757 c 0.873125,0.24067 2.107176,0.76829 2.742335,1.17249 l 1.154832,0.73491 0.867712,-0.84102 c 1.579848,-1.53125 2.741176,-0.40929 1.210754,1.16971 l -0.820819,0.84687 0.772215,1.44026 c 0.42472,0.79214 0.925965,1.97604 1.11388,2.63088 0.408173,1.4224 0.594805,1.57818 1.897081,1.58345 0.661554,0.003 1.054399,0.14453 1.159613,0.41871 0.231333,0.60284 -0.277085,0.98292 -1.544169,1.15436 -1.094047,0.14802 -1.122566,0.1784 -1.563563,1.66521 -0.247055,0.83294 -0.771914,2.06512 -1.166352,2.73818 l -0.717158,1.22374 0.820256,0.84629 c 0.91137,0.9403 1.046514,1.60371 0.378883,1.8599 -0.288938,0.11088 -0.727334,-0.10779 -1.269365,-0.63315 -0.455398,-0.44139 -0.967018,-0.80252 -1.136938,-0.80252 -0.169918,0 -0.838124,0.33559 -1.4849,0.74577 -0.646774,0.41017 -1.841535,0.90543 -2.655022,1.10059 l -1.479066,0.35482 v 1.09545 c 0,1.44149 -0.645086,2.15031 -1.270804,1.39637 z m -0.316696,-7.23485 c 0,-1.5124 -0.09228,-2.74982 -0.20506,-2.74982 -0.112781,0 -1.090586,0.89148 -2.172899,1.98106 -1.390401,1.39975 -1.885256,2.06364 -1.686411,2.26249 0.465391,0.46539 3.32551,1.53961 3.708217,1.39276 0.266869,-0.10241 0.356153,-0.82602 0.356153,-2.88649 z m 4.564062,2.10267 c 0.691224,-0.34544 1.256771,-0.77209 1.256771,-0.94812 0,-0.34754 -3.692459,-4.16895 -4.028273,-4.16895 -0.246634,0 -0.278731,5.65897 -0.03349,5.90421 0.247427,0.24743 1.358944,-0.0645 2.80499,-0.78714 z m -7.871354,-4.32332 2.104253,-2.11667 h -3.102647 c -2.429185,0 -3.102647,0.0776 -3.102647,0.3574 0,0.88958 1.400955,3.87594 1.81828,3.87594 0.09818,0 1.125424,-0.9525 2.282761,-2.11667 z m 11.435106,0.77345 c 0.328742,-0.64368 0.673413,-1.55728 0.765937,-2.03022 l 0.168228,-0.8599 h -2.94349 c -1.618919,0 -2.943489,0.0865 -2.943489,0.19222 0,0.35029 3.821448,4.04612 4.090807,3.95633 0.145365,-0.0485 0.533268,-0.61475 0.862007,-1.25843 z m -9.830937,-4.76917 c 0.201184,-0.32552 -3.25279,-3.94178 -3.764883,-3.94178 -0.459941,0 -1.071052,0.95899 -1.571768,2.4665 -0.362019,1.08993 -0.373218,1.33675 -0.0694,1.52922 0.539181,0.34156 5.190294,0.29515 5.406048,-0.0539 z m 10.399794,0.0539 c 0.303279,-0.19213 0.289322,-0.44922 -0.08569,-1.57828 -0.246394,-0.74182 -0.670193,-1.61898 -0.941774,-1.94924 l -0.493784,-0.60049 -1.987092,1.96472 c -1.092901,1.0806 -1.926439,2.06286 -1.852306,2.18281 0.179509,0.29045 4.898459,0.27327 5.360646,-0.0195 z m -4.754988,-3.30701 c 1.220888,-1.2291 1.870718,-2.0758 1.746893,-2.27616 -0.276,-0.44657 -2.787084,-1.58185 -3.505764,-1.58497 -0.581437,-0.003 -0.595312,0.0652 -0.595312,2.90784 0,1.60072 0.09228,2.91041 0.20506,2.91041 0.112781,0 1.079886,-0.8807 2.149123,-1.95712 z m -3.941683,-0.9616 c 0,-2.14408 -0.07819,-2.68414 -0.406852,-2.81026 -0.496422,-0.1905 -2.537868,0.5602 -3.359132,1.23524 l -0.599641,0.49287 1.844987,1.86815 c 1.014743,1.02748 1.997009,1.86814 2.182813,1.86814 0.251592,0 0.337825,-0.67749 0.337825,-2.65414 z m 14.684374,-6.17031 c -2.892885,-0.79675 -2.935401,-0.83413 -2.090793,-1.83789 l 0.700993,-0.83308 -0.974479,-0.84237 c -1.33726,-1.15597 -4.120613,-2.5729 -6.499262,-3.30861 -2.817498,-0.87144 -7.236669,-0.87144 -10.054166,0 -2.639399,0.81636 -5.084254,2.12945 -6.966736,3.74173 -1.601126,1.37131 -2.382856,1.63091 -2.668627,0.8862 -0.207295,-0.54021 0.309354,-1.12389 2.357829,-2.66376 3.789654,-2.84874 7.635256,-4.14382 12.304617,-4.14382 4.598244,0 8.519652,1.2994 12.146396,4.02483 1.479015,1.11145 1.87008,1.13935 2.658282,0.18962 0.672472,-0.81028 0.98753,-0.39656 1.688404,2.21714 0.387659,1.44565 0.70483,2.75534 0.70483,2.91042 0,0.4118 -0.91995,0.31711 -3.307288,-0.34041 z m 6.349998,-20.69786 c -2.09936,-1.584 -2.07765,-1.55635 -1.69847,-2.1635 0.27877,-0.44638 0.19729,-0.85495 -0.53052,-2.6605 -0.92674,-2.29902 -0.91064,-3.10458 0.0695,-3.47497 0.9448,-0.35706 1.48853,0.17699 2.56605,2.52035 0.83012,1.80533 1.13453,2.22801 1.60458,2.22801 0.55939,0 0.57423,0.0695 0.41566,1.94535 -0.16802,1.98763 -0.36684,2.82263 -0.66912,2.8101 -0.0936,-0.004 -0.8845,-0.54605 -1.75763,-1.20484 z m 8.86354,-0.61183 c -1.31269,-0.40496 -1.45789,-0.52402 -1.48261,-1.21579 -0.0221,-0.6182 -0.62148,-1.33403 -3.09173,-3.69232 -3.52413,-3.36442 -3.85785,-3.85778 -3.24357,-4.79528 0.7861,-1.19974 1.42779,-0.86605 5.09497,2.64945 2.70815,2.59613 3.55188,3.26267 3.98623,3.14909 0.48605,-0.12711 0.61552,0.0727 1.09904,1.69629 0.30145,1.01221 0.54809,2.0359 0.54809,2.27487 0,0.5575 -0.95917,0.53564 -2.91042,-0.0663 z m -16.086663,-0.87503 c -0.432453,-0.43245 -0.432453,-5.28254 0,-5.715 0.459264,-0.45926 1.674437,-0.38972 2.0975,0.12004 0.246372,0.29687 0.363125,1.17702 0.363125,2.73746 0,1.56045 -0.116753,2.4406 -0.363125,2.73747 -0.423063,0.50975 -1.638236,0.5793 -2.0975,0.12003 z m -7.576044,-1.88594 c -0.264284,-0.19325 -0.480518,-0.65301 -0.480518,-1.02169 0,-0.90429 2.053773,-4.37117 2.713524,-4.58056 0.824307,-0.26163 1.568257,0.10244 1.758535,0.86056 0.315267,1.25612 -2.095804,5.09305 -3.2004,5.09305 -0.170844,0 -0.526857,-0.15811 -0.791141,-0.35136 z m -5.854173,-6.11798 c -0.649563,-0.99135 -0.259062,-1.62755 1.686829,-2.74817 2.374919,-1.36768 2.660325,-1.44917 3.393377,-0.96885 1.330629,0.87186 0.67296,2.00271 -2.053863,3.53157 -1.789482,1.00332 -2.463397,1.04462 -3.026343,0.18545 z m 28.92157,-0.0328 c -0.10914,-0.11033 -0.19844,-0.40622 -0.19844,-0.65753 0,-0.31767 -0.54433,-0.67315 -1.78593,-1.16631 -2.39946,-0.95307 -2.97657,-1.35831 -2.97657,-2.09011 0,-0.63143 0.73226,-1.49012 1.27072,-1.49012 0.16665,0 1.22831,0.36757 2.35924,0.81682 1.60001,0.6356 2.15842,0.753 2.51684,0.52917 0.25333,-0.15821 0.5696,-0.28766 0.7028,-0.28766 0.31204,0 2.6754,3.17315 2.6754,3.59211 0,0.17476 -0.38695,0.38638 -0.85989,0.47026 -1.99817,0.35439 -3.51884,0.47072 -3.70417,0.28337 z m -15.982486,-0.6497 c -6.113869,-1.22531 -8.400155,-8.9573 -3.931795,-13.29691 1.616213,-1.56965 3.123594,-2.17308 5.428345,-2.17308 2.598224,0 4.590026,0.91785 6.078706,2.80117 1.29454,1.63773 1.70702,2.8434 1.71194,5.00403 0.007,3.06741 -1.73919,5.80604 -4.48174,7.029 -1.587125,0.70773 -3.309483,0.93561 -4.805456,0.63579 z m 3.692501,-2.79961 c 2.182635,-1.09936 3.567435,-3.54287 3.200265,-5.64695 -0.55024,-3.15321 -3.746087,-5.31045 -6.692,-4.5172 -1.307494,0.35207 -2.970455,1.76281 -3.571811,3.03007 -0.828969,1.74692 -0.382524,4.45869 0.977619,5.93822 1.369404,1.48959 4.342776,2.07385 6.085927,1.19586 z m -18.526647,-3.87299 c -0.602748,-0.77897 -0.589571,-1.29389 0.04946,-1.93292 0.568711,-0.56871 0.879718,-0.64629 2.577023,-0.64287 2.272654,0.005 3.220521,0.39073 3.333681,1.35803 0.144904,1.23865 -0.503799,1.54849 -3.242011,1.54849 -1.656924,0 -2.545945,-0.10817 -2.718154,-0.33073 z m 27.066062,-0.17662 c -0.61442,-0.67893 -0.4365,-1.65165 0.37713,-2.06181 0.77694,-0.39167 3.91041,-0.45094 4.85493,-0.0918 0.87098,0.33115 1.12157,1.19339 0.58487,2.01249 -0.40068,0.61152 -0.56558,0.6485 -2.89135,0.6485 -2.09506,0 -2.53557,-0.0764 -2.92558,-0.50735 z m -22.96002,-6.19537 c -2.565551,-1.4721 -3.02514,-2.1288 -2.240648,-3.20166 0.540679,-0.739422 1.457984,-0.574711 3.552057,0.63781 2.129042,1.23277 2.602506,2.01337 1.775471,2.92723 -0.652285,0.72077 -1.338138,0.64003 -3.08688,-0.36338 z m 21.48507,0.35272 c -0.99073,-0.99073 -0.6283,-1.61422 1.71979,-2.95857 2.22472,-1.273716 2.49521,-1.347633 3.21228,-0.87779 0.71138,0.46611 0.82692,1.47916 0.23609,2.06998 -0.57766,0.57767 -3.73494,2.29555 -4.21896,2.29555 -0.23102,0 -0.65816,-0.23813 -0.9492,-0.52917 z M 90.240905,99.754803 c -0.93744,-1.049163 -2.206154,-3.360965 -2.206154,-4.019971 0,-1.107715 1.150834,-1.823897 2.031137,-1.26401 0.51498,0.327536 2.466779,3.844592 2.466779,4.445024 0,0.629711 -0.765013,1.434274 -1.363776,1.434274 -0.217837,0 -0.635428,-0.2679 -0.927986,-0.595317 z m 11.750615,0.309537 c -0.68768,-0.400541 -0.56402,-1.474744 0.36061,-3.132414 1.43525,-2.573102 2.32328,-3.186684 3.25851,-2.251453 0.65311,0.653111 0.49451,1.631577 -0.54887,3.386074 -1.35287,2.274913 -1.93931,2.656503 -3.07025,1.997793 z m -5.84597,-1.785579 c -0.340283,-0.37601 -0.437883,-1.023347 -0.437883,-2.904318 0,-2.276969 0.03845,-2.445652 0.648505,-2.845379 1.514014,-0.992018 2.419757,0.523298 2.194509,3.671437 -0.09909,1.384917 -0.255794,1.950615 -0.612611,2.211525 -0.66208,0.484124 -1.275029,0.438555 -1.79252,-0.133265 z"
         style="fill:#1e557c;stroke-width:0.26458332" />
      <path
         id="path75"
         d="m 57.795248,234.59324 c -0.103169,-0.10317 -0.187579,-4.15632 -0.187579,-9.00702 v -8.81944 h 1.624478 c 1.211448,0 1.706542,0.11222 1.947241,0.4414 0.297968,0.4075 0.394068,0.39734 1.251021,-0.13229 2.143289,-1.32463 5.061347,-0.42531 6.274218,1.93365 0.601819,1.1705 0.676251,1.62593 0.670258,4.10104 -0.0072,2.99716 -0.397928,4.21782 -1.753446,5.47868 -1.247275,1.16016 -3.386704,1.49032 -4.818494,0.74359 -1.408485,-0.73457 -1.466678,-0.64253 -1.548304,2.44903 l -0.0751,2.84427 -1.598358,0.0773 c -0.879097,0.0425 -1.682769,-0.007 -1.785938,-0.11025 z m 6.860836,-7.89405 c 0.908974,-0.63667 1.219129,-1.78727 1.112816,-4.12829 -0.08939,-1.96834 -0.160509,-2.20519 -0.836922,-2.78701 -0.90797,-0.781 -1.9998,-0.81369 -2.923002,-0.0875 -0.676635,0.53224 -0.69714,0.63284 -0.69714,3.42038 0,2.78753 0.0205,2.88813 0.69714,3.42038 0.816022,0.64188 1.869924,0.70639 2.647108,0.16203 z m 34.278002,4.69146 0.08087,-1.26242 h 5.159374 5.15938 v 1.19063 1.19062 l -5.24025,0.0718 -5.240249,0.0718 z m -52.886221,-2.32951 c -2.341276,-1.16671 -3.477863,-3.66007 -3.12665,-6.85903 0.225621,-2.05505 0.650883,-3.02395 1.829769,-4.16886 1.224634,-1.18935 2.810927,-1.64531 5.088159,-1.46251 1.350285,0.10838 1.990815,0.31205 2.82471,0.89813 2.719099,1.91105 3.382603,6.84836 1.339485,9.96745 -1.442926,2.20281 -5.239538,2.97823 -7.955473,1.62482 z m 3.993981,-2.27686 c 0.95287,-0.43416 1.480407,-1.75678 1.480407,-3.71162 0,-2.80587 -1.307997,-4.40903 -3.081827,-3.77727 -1.20087,0.42769 -1.784895,1.5141 -1.898941,3.53241 -0.183698,3.25102 1.319535,4.95013 3.500361,3.95648 z m 25.759641,2.68363 c -1.772179,-0.53361 -3.472193,-2.18526 -4.017425,-3.90314 -0.294791,-0.9288 -0.217461,-3.89283 0.13199,-5.0592 0.72064,-2.40528 2.89859,-3.98694 5.504669,-3.99757 2.118283,-0.009 3.344672,0.46021 4.509598,1.724 1.091168,1.18378 1.725708,3.19774 1.55766,4.94385 l -0.08344,0.86697 -3.913645,0.0733 c -3.053067,0.0572 -3.944789,0.15444 -4.055271,0.44235 -0.382172,0.99592 1.484071,2.5244 3.084327,2.52609 0.514935,5.3e-4 1.407903,-0.24129 1.984375,-0.5374 l 1.048131,-0.53839 0.742603,0.82393 c 0.903713,1.00269 0.707488,1.35397 -1.27177,2.27674 -1.383011,0.64479 -3.734776,0.80624 -5.221806,0.35849 z m 3.979516,-8.37106 c 0.0983,-1.01109 -0.922298,-1.94882 -2.121035,-1.94882 -1.318456,0 -2.879651,2.0032 -2.138675,2.74418 0.102598,0.10259 1.084864,0.1522 2.182813,0.11024 l 1.99627,-0.0763 z m 5.872498,2.01993 v -6.35 h 1.719792 c 1.321009,0 1.719791,0.0884 1.719791,0.38126 0,0.68257 0.515604,0.72276 1.379612,0.10753 1.21702,-0.86659 3.720779,-0.98505 4.920165,-0.23278 1.452925,0.91129 1.637723,1.74725 1.637723,7.4084 v 5.03559 h -1.719792 -1.719791 l -0.0016,-3.90261 c -0.0016,-4.20046 -0.262437,-5.7264 -1.051039,-6.14845 -0.787815,-0.42162 -2.0067,-0.31393 -2.688486,0.23754 -0.607206,0.49114 -0.626944,0.63501 -0.707824,5.15938 l -0.08309,4.65414 h -1.702736 -1.702737 z m 25.664579,-2.38125 v -8.73125 h 5.70237 5.70237 l -0.08,1.38906 -0.08,1.38906 -3.70416,0.13229 -3.70417,0.13229 -0.0789,1.97856 c -0.10423,2.61181 -0.0444,2.65165 3.98048,2.65165 h 3.13892 l -0.0806,1.25677 -0.0806,1.25677 -3.15853,0.075 c -1.77338,0.0421 -3.31079,0.20134 -3.50573,0.36312 -0.25233,0.20942 -0.3472,1.18304 -0.3472,3.56305 v 3.2749 h -1.85208 -1.85209 z m 14.02292,0 v -8.73125 h 4.05302 c 4.52362,0 6.20999,0.33574 7.61207,1.51552 1.07475,0.90434 1.56408,2.08572 1.56408,3.77614 0,1.80697 -0.58476,3.11756 -1.89987,4.25813 l -1.09635,0.95083 1.76269,3.37705 c 0.96948,1.85737 1.76269,3.42881 1.76269,3.49207 0,0.0633 -0.92273,0.0802 -2.05052,0.0377 l -2.05052,-0.0773 -1.5875,-3.0427 c -1.57204,-3.01308 -1.59734,-3.04352 -2.59815,-3.12593 -1.61925,-0.13333 -1.76747,0.15373 -1.76747,3.4229 v 2.87803 h -1.85209 -1.85208 z m 8.46667,-1.01838 c 0.88599,-0.65304 1.24815,-2.11793 0.79442,-3.21334 -0.54355,-1.31224 -1.25162,-1.62472 -3.47851,-1.53513 l -1.94612,0.0783 -0.0773,2.37662 c -0.0661,2.03183 -0.009,2.42861 0.39688,2.73505 0.64966,0.49106 3.43208,0.20608 4.31068,-0.4415 z m 8.20208,1.01838 v -8.74138 l 5.88698,0.0712 5.88698,0.0712 v 1.32291 1.32292 l -3.96875,0.13229 -3.96875,0.13229 -0.0794,1.67675 c -0.0477,1.00843 0.0443,1.82573 0.23083,2.05052 0.23535,0.28359 1.06849,0.37378 3.45281,0.37378 h 3.1426 v 1.32291 1.32292 H 149.471 c -2.07551,0 -3.22852,0.10643 -3.43959,0.3175 -0.18867,0.18867 -0.3175,1.09742 -0.3175,2.23965 0,1.62958 0.0779,1.96384 0.51178,2.19604 0.28147,0.15064 2.13347,0.27389 4.11554,0.27389 h 3.60376 l -0.0806,1.25677 -0.0806,1.25677 -5.88698,0.0712 -5.88698,0.0712 z m 14.2875,-0.001 v -8.77981 l 3.77031,0.0963 c 3.23357,0.0826 3.95864,0.18221 5.09323,0.69982 1.67921,0.76607 2.90378,1.93881 3.77909,3.61913 0.98109,1.88339 1.15757,5.93133 0.35183,8.06979 -0.72214,1.91658 -1.77502,3.15024 -3.50768,4.10993 -1.36906,0.75831 -1.55347,0.7879 -5.45189,0.87475 l -4.03489,0.0899 z m 7.65657,5.32765 c 1.11304,-0.80142 1.60383,-1.70431 1.88902,-3.47519 0.50401,-3.12964 -0.30723,-6.14581 -1.92082,-7.14151 -0.66058,-0.40762 -1.23812,-0.52399 -2.33311,-0.47007 l -1.4552,0.0716 -0.0717,5.55573 c -0.0653,5.05848 -0.0298,5.58686 0.39688,5.90361 0.60269,0.44744 2.61113,0.19217 3.49495,-0.44421 z M 69.381627,179.81923 c -0.669015,-0.25144 -1.520648,-0.3465 -2.315104,-0.25841 -0.941819,0.10444 -1.256771,0.0508 -1.256771,-0.21419 0,-0.7348 2.380157,-0.90851 3.877268,-0.28298 1.220504,0.50996 2.33399,0.50218 3.887501,-0.0272 1.322557,-0.45064 2.45232,-0.40838 4.449437,0.16643 1.089578,0.3136 1.418315,0.29936 2.808856,-0.12166 1.658292,-0.50209 2.79576,-0.47364 4.86406,0.12166 1.09006,0.31374 1.418233,0.29939 2.813418,-0.12304 1.642456,-0.4973 2.500884,-0.47284 4.617688,0.13155 1.059405,0.30249 1.454137,0.30211 2.513541,-0.002 1.90695,-0.54815 3.107614,-0.62735 4.174249,-0.27533 0.92483,0.30522 1.00688,0.28086 1.86918,-0.55491 1.12621,-1.09156 1.13568,-1.47443 0.042,-1.69713 -0.47294,-0.0963 -1.4578,-0.35706 -2.188572,-0.57947 -1.247746,-0.37975 -1.43859,-0.37043 -3.133233,0.15299 -1.845712,0.57008 -2.225582,0.55749 -4.472296,-0.14818 -1.17646,-0.36951 -1.371211,-0.35903 -2.895648,0.15578 -2.001864,0.67604 -2.298795,0.67785 -4.375877,0.0267 -1.642216,-0.51483 -1.665076,-0.51483 -3.307292,0 -2.053532,0.64379 -2.314014,0.64316 -4.39929,-0.0105 -1.384197,-0.43389 -1.859502,-0.47719 -2.645833,-0.24104 -2.568737,0.77142 -2.760901,0.77987 -4.715873,0.20717 -1.785268,-0.52298 -1.985237,-0.5326 -3.174999,-0.15273 -2.244,0.71646 -2.875148,0.78206 -3.244345,0.33721 -0.288454,-0.34761 -0.251465,-0.40869 0.247497,-0.40869 0.322648,0 1.418359,-0.25262 2.434912,-0.56139 l 1.848273,-0.5614 1.95321,0.57985 1.953207,0.57984 1.866371,-0.60111 c 1.697302,-0.54665 1.96783,-0.56858 2.986463,-0.24207 1.483794,0.4756 3.734935,0.48241 5.28688,0.016 1.050417,-0.31568 1.440765,-0.32122 2.38125,-0.0338 1.992,0.60881 3.109462,0.64322 4.750789,0.14626 1.550046,-0.46932 1.596999,-0.46783 3.570219,0.1127 l 1.999519,0.58827 1.863982,-0.5769 1.863981,-0.57689 2.018295,0.5832 2.0183,0.58319 1.70593,-0.59037 c 0.93826,-0.3247 2.83721,-1.36512 4.2199,-2.31204 2.8346,-1.94125 8.33604,-4.6652 11.5098,-5.6989 2.37721,-0.77426 6.3111,-1.61929 8.79787,-1.88987 0.90976,-0.099 1.70119,-0.25755 1.75873,-0.35238 0.0575,-0.0948 0.23472,-4.45865 0.39374,-9.6974 0.15902,-5.23875 0.36062,-11.04265 0.44801,-12.89755 0.13596,-2.88576 0.10028,-3.39505 -0.24716,-3.52838 -0.25795,-0.099 -2.64607,1.40945 -6.54769,4.13578 -7.81397,5.46016 -8.60246,5.75694 -5.23551,1.97063 3.22799,-3.63005 5.89214,-6.25898 6.70071,-6.61215 0.47342,-0.20678 1.35216,-0.28925 2.24896,-0.21106 1.24272,0.10835 1.61612,0.0303 2.39796,-0.50137 1.22644,-0.83398 1.24042,-1.18337 0.42106,-10.5245 -0.36333,-4.1421 -0.61462,-7.57707 -0.55843,-7.63326 0.33877,-0.33877 0.81687,0.73353 2.1366,4.79199 0.81403,2.50335 1.54668,5.23052 1.62811,6.06038 0.13474,1.3732 0.0723,1.62684 -0.69424,2.82144 -0.93746,1.4609 -1.27691,2.88074 -0.86955,3.63708 0.16049,0.29797 3.37255,1.9396 7.96582,4.07118 4.2333,1.96453 7.69708,3.7207 7.69731,3.90261 5.3e-4,0.42677 0.34451,0.47146 -4.58436,-0.59557 -7.64427,-1.65488 -7.67748,-1.66957 -8.80493,-3.89285 -0.75074,-1.48043 -1.55278,-2.04682 -1.89153,-1.33578 -0.25435,0.5339 0.51426,25.44494 0.79916,25.90108 0.10281,0.16461 1.08087,0.38306 2.17347,0.48544 5.60632,0.52536 11.76761,3.02161 15.61589,6.32679 1.76074,1.51225 0.8622,1.34779 -1.22412,-0.22406 -3.24884,-2.4477 -6.82459,-4.05319 -11.60817,-5.21201 -2.27899,-0.55209 -10.67373,-0.47394 -13.49375,0.12561 -5.42028,1.15238 -10.04751,2.97219 -14.77148,5.80934 -3.84503,2.30927 -4.66555,2.93005 -7.3821,5.58506 l -2.17754,2.1282 -0.883958,-0.31964 c -1.179375,-0.42647 -1.96283,-0.40295 -3.449296,0.10354 -1.327586,0.45235 -2.711465,0.39628 -4.606983,-0.18668 -0.934476,-0.28739 -1.314481,-0.28477 -2.248958,0.0155 -1.488294,0.47824 -3.999132,0.48646 -5.55209,0.0182 -1.131203,-0.34111 -1.380998,-0.33156 -2.577259,0.0986 -1.453472,0.52266 -3.029593,0.4885 -5.088564,-0.11031 -1.097312,-0.31913 -1.41491,-0.30883 -2.669088,0.0865 -1.714841,0.54056 -2.875777,0.54426 -4.287477,0.0137 z m 13.294603,-9.76448 c -0.07462,-0.66203 -0.191146,-1.25917 -0.258943,-1.32696 -0.0678,-0.0678 -0.824724,-0.30598 -1.682056,-0.52929 -0.857332,-0.2233 -2.132307,-0.77403 -2.833272,-1.22384 l -1.274485,-0.81784 -0.857395,0.83102 c -1.51234,1.46582 -2.128457,0.8497 -0.662641,-0.66264 l 0.831019,-0.85739 -0.817835,-1.27449 c -0.449808,-0.70096 -0.996217,-1.95934 -1.214242,-2.7964 -0.528508,-2.02908 -0.543007,-2.04472 -1.894536,-2.04472 -0.868063,0 -1.175009,-0.10368 -1.175009,-0.39688 0,-0.29352 0.307647,-0.39687 1.181317,-0.39687 1.309378,0 1.553739,-0.2514 1.866895,-1.92066 0.101621,-0.54168 0.588438,-1.65524 1.081817,-2.47458 0.493379,-0.81934 0.897054,-1.53067 0.897054,-1.58074 0,-0.0501 -0.374888,-0.518 -0.833083,-1.03986 -1.068747,-1.21723 -0.673938,-1.81582 0.434536,-0.65882 0.419174,0.43752 0.897308,0.79549 1.062522,0.79549 0.165214,0 0.94661,-0.34704 1.736436,-0.77121 0.789826,-0.42416 1.971829,-0.90899 2.626672,-1.0774 1.444461,-0.37148 1.852084,-0.84923 1.852084,-2.17071 0,-0.55427 0.119062,-1.00776 0.264583,-1.00776 0.145521,0 0.264583,0.5212 0.264583,1.15823 0,1.33969 0.226711,1.58616 1.852083,2.01344 0.654844,0.17215 1.836846,0.66004 2.626673,1.0842 0.789826,0.42417 1.548016,0.77121 1.684863,0.77121 0.136848,0 0.658615,-0.35981 1.159481,-0.79958 0.500864,-0.43976 1.022922,-0.73019 1.160121,-0.6454 0.310534,0.19192 -0.0349,0.87554 -0.785799,1.55509 -0.721254,0.65273 -0.70767,0.75706 0.37732,2.8983 0.5066,0.99979 0.921091,2.04942 0.921091,2.33251 0,1.10435 0.48773,1.53825 1.7291,1.53825 0.87367,0 1.181317,0.10335 1.181317,0.39687 0,0.2815 -0.288433,0.39805 -0.992188,0.40093 -1.35156,0.006 -1.564076,0.19408 -1.9377,1.71925 -0.353589,1.4434 -1.141179,3.17226 -1.564248,3.43373 -0.519565,0.32111 -0.259606,1.36694 0.527129,2.12068 0.532784,0.51044 0.707711,0.84991 0.529683,1.02794 -0.178028,0.17803 -0.554125,-0.0136 -1.13882,-0.58034 -0.480155,-0.46538 -0.975976,-0.84615 -1.10183,-0.84615 -0.125852,0 -0.776206,0.35126 -1.445228,0.78057 -0.669023,0.42931 -1.92214,0.96438 -2.784706,1.18905 -1.780537,0.46377 -1.988632,0.67927 -1.994291,2.06528 -0.0057,1.39142 -0.436515,1.23957 -0.600072,-0.21151 z m -0.207037,-3.01224 c 0.292799,-0.5471 0.381267,-4.98597 0.113292,-5.6843 -0.08833,-0.23018 -0.294055,-0.41851 -0.457168,-0.41851 -0.496247,0 -4.409315,4.05485 -4.409315,4.56908 0,0.32954 0.519467,0.72622 1.653645,1.26277 1.927294,0.91177 2.719528,0.98102 3.099546,0.27096 z m 4.438298,-0.35339 c 2.098622,-1.09913 2.082919,-1.21811 -0.501967,-3.803 -2.978629,-2.97862 -3.133273,-2.93252 -3.133273,0.93405 0,1.59339 0.07737,3.0987 0.171926,3.34512 0.232789,0.60663 1.809888,0.38979 3.463314,-0.47617 z m -7.631554,-4.53109 c 1.255424,-1.26198 2.131698,-2.34748 2.029063,-2.51354 -0.11557,-0.187 -1.321752,-0.29229 -3.348334,-0.29229 -3.628834,0 -3.721478,0.0607 -3.180373,2.08383 0.420698,1.57293 1.278596,2.94325 1.842651,2.94325 0.246004,0 1.441651,-0.99956 2.656993,-2.22125 z m 11.313638,0.98405 c 0.493189,-0.84156 0.729433,-1.62421 0.738759,-2.4474 l 0.01371,-1.21019 -3.113918,-0.0746 c -4.085547,-0.0979 -4.160289,0.06 -1.361175,2.87567 1.144786,1.15154 2.287564,2.09371 2.539505,2.09371 0.265697,0 0.762569,-0.51958 1.183121,-1.2372 z m -9.43399,-5.05286 c 0,-0.25808 -0.953844,-1.41748 -2.119654,-2.57645 -2.442049,-2.42773 -2.59017,-2.43296 -3.767325,-0.13308 -0.695817,1.35946 -0.928227,2.62535 -0.551215,3.00237 0.09701,0.097 1.585294,0.17639 3.307292,0.17639 2.821199,0 3.130902,-0.0464 3.130902,-0.46923 z m 10.268306,-0.37127 c 0.09871,-0.8541 -0.856054,-3.17341 -1.573728,-3.8229 -0.502018,-0.45432 -0.582308,-0.40239 -2.787851,1.80316 -1.351455,1.35145 -2.19516,2.39357 -2.083771,2.57381 0.127699,0.20662 1.168524,0.27923 3.275341,0.2285 l 3.08816,-0.0744 z m -3.223614,-5.47278 c -0.257313,-0.28433 -1.024898,-0.75246 -1.705745,-1.0403 -3.02872,-1.28044 -3.222281,-1.11095 -3.222281,2.82164 0,3.98738 0.105381,4.02611 3.021155,1.11033 2.30681,-2.30681 2.361335,-2.38949 1.906871,-2.89167 z m -5.573911,4.07436 c 0.294381,-1.56918 0.03151,-5.42426 -0.387516,-5.68321 -0.438391,-0.2709 -2.26228,0.22717 -3.525224,0.96268 -1.406885,0.81934 -1.255231,1.32533 1.077669,3.59558 1.153499,1.12252 2.224611,2.04095 2.38025,2.04095 0.155638,0 0.360307,-0.4122 0.454821,-0.916 z m 15.462551,-8.75314 c -0.654844,-0.1945 -1.709764,-0.48788 -2.344266,-0.65196 l -1.153642,-0.29834 0.558329,-0.59431 c 0.307081,-0.32687 0.558329,-0.78633 0.558329,-1.02102 0,-0.6074 -1.651693,-1.88942 -4.02518,-3.12429 -6.784869,-3.53002 -15.13918,-2.57445 -20.933221,2.39435 -1.627814,1.39597 -2.123921,1.61394 -1.980702,0.87027 0.122605,-0.63663 2.867151,-2.78568 4.94803,-3.87442 3.212796,-1.68098 5.256803,-2.1551 9.291074,-2.1551 3.009789,0 3.883094,0.0977 5.549577,0.62099 2.453023,0.77025 4.16129,1.61863 6.271791,3.11479 1.841786,1.30567 2.183387,1.38082 2.863006,0.62985 0.26339,-0.29105 0.560819,-0.52917 0.660956,-0.52917 0.19966,0 1.323419,3.90253 1.323419,4.59589 0,0.49455 0.0019,0.49452 -1.5875,0.0225 z m 5.235273,-21.05858 c -1.26274,-0.92697 -1.4467,-1.16462 -1.20325,-1.55445 0.22408,-0.35879 0.0984,-0.9291 -0.57058,-2.58861 -0.91475,-2.26929 -0.97684,-3.30015 -0.20759,-3.4468 0.74208,-0.14148 1.12086,0.33855 2.05776,2.60777 0.47862,1.15925 0.96759,2.12261 1.08659,2.1408 0.11901,0.0182 0.36521,0.0497 0.54711,0.0701 0.23529,0.0263 0.30398,0.49396 0.23805,1.62057 -0.13763,2.35156 -0.23436,2.4087 -1.94809,1.15064 z m 9.25066,-0.45027 c -1.34585,-0.3681 -1.52106,-0.49377 -1.51882,-1.08937 0.002,-0.51865 -0.76342,-1.4051 -3.33282,-3.86007 -2.75316,-2.63055 -3.31934,-3.3002 -3.24367,-3.83646 0.0673,-0.47671 0.27849,-0.67128 0.79345,-0.73088 0.58432,-0.0676 1.24963,0.44833 3.97488,3.08259 1.93021,1.86576 3.53262,3.20173 3.90565,3.25623 0.52622,0.0769 0.70988,0.36738 1.09243,1.72788 0.42034,1.49491 0.42155,1.99614 0.005,1.9013 -0.0849,-0.0193 -0.83895,-0.22236 -1.6757,-0.45122 z m -16.285099,-0.88951 c -0.499452,-0.49945 -0.420852,-4.56843 0.09827,-5.08756 0.228674,-0.22868 0.562049,-0.41577 0.740833,-0.41577 0.736944,0 0.960059,0.67637 0.960059,2.91041 0,2.31114 -0.217921,2.91042 -1.058333,2.91042 -0.232833,0 -0.566208,-0.14287 -0.740833,-0.3175 z m -7.814027,-1.97556 c -0.369943,-0.36994 -0.143584,-1.17519 0.783146,-2.78599 1.108225,-1.92627 1.518033,-2.32374 2.209458,-2.14293 1.07215,0.28037 0.903774,1.23049 -0.647935,3.6562 -0.691169,1.08047 -1.084874,1.44911 -1.547633,1.44911 -0.341357,0 -0.700024,-0.0794 -0.797036,-0.17639 z m -5.55625,-5.82083 c -0.09701,-0.097 -0.176389,-0.44895 -0.176389,-0.78208 0,-0.46986 0.410839,-0.84563 1.832099,-1.67569 1.985788,-1.15976 2.675207,-1.29942 3.213391,-0.65095 0.496284,0.59798 0.0934,1.11852 -1.762112,2.27669 -1.460661,0.91172 -2.696387,1.24264 -3.106989,0.83203 z m 28.861386,-0.84266 c -0.0826,-0.31585 -0.86904,-0.79422 -2.21367,-1.34649 -2.34418,-0.96283 -2.86357,-1.42022 -2.46288,-2.16893 0.37088,-0.69299 1.22388,-0.61544 3.39558,0.3087 1.53627,0.65374 1.98514,0.74668 2.43736,0.50466 0.30487,-0.16317 0.63941,-0.19633 0.74341,-0.0737 0.84157,0.99221 1.87076,2.46245 1.87076,2.67245 0,0.14118 -0.5524,0.33241 -1.22756,0.42495 -1.95408,0.26784 -2.40372,0.21097 -2.543,-0.32163 z m -17.511301,-0.55763 c -4.895445,-1.97225 -6.193565,-8.50109 -2.437146,-12.25751 1.501352,-1.50135 2.638563,-1.90852 5.330463,-1.90852 2.140016,0 2.510866,0.0762 3.660704,0.75205 1.31448,0.77264 2.71561,2.47305 3.26448,3.96175 0.17083,0.46335 0.31849,1.61636 0.32814,2.56224 0.0292,2.85875 -1.48482,5.35535 -4.04275,6.66663 -1.57855,0.80922 -4.393968,0.91225 -6.103891,0.22336 z m 4.229166,-1.36459 c 1.558975,-0.39256 3.391835,-2.02744 3.969915,-3.5411 1.31897,-3.4537 -1.17206,-7.38628 -4.906,-7.74506 -1.687375,-0.16214 -3.028543,0.32053 -4.397883,1.58275 -3.375999,3.11189 -2.0062,8.36838 2.541198,9.75164 0.960538,0.29218 1.47624,0.28327 2.79277,-0.0482 z m -17.409286,-4.75284 c -0.53476,-0.31147 -0.606049,-1.05286 -0.145521,-1.51339 0.19772,-0.19772 1.175925,-0.3175 2.592917,-0.3175 2.234046,0 2.910416,0.22312 2.910416,0.96006 0,0.82655 -0.822867,1.15664 -2.86317,1.14856 -1.117391,-0.004 -2.239981,-0.1294 -2.494642,-0.27773 z m 27.047581,-0.24945 c -0.42927,-0.42927 -0.47881,-0.64066 -0.25024,-1.06774 0.26017,-0.48614 0.50839,-0.52594 2.85033,-0.45696 2.49495,0.0735 2.56785,0.0933 2.65662,0.72219 0.13957,0.98878 -0.58762,1.33774 -2.78767,1.33774 -1.58834,0 -2.02943,-0.0956 -2.46904,-0.53523 z m -23.039535,-6.15351 c -2.094704,-1.20403 -2.392826,-1.49993 -2.301632,-2.28445 0.121446,-1.04475 0.944652,-0.97726 3.077287,0.2523 1.642565,0.94701 1.897028,1.19332 1.897028,1.83629 0,0.6541 -0.411896,1.08303 -1.013828,1.05575 -0.09724,-0.004 -0.843725,-0.39136 -1.658855,-0.85989 z m 21.369905,0.42693 c -0.097,-0.097 -0.17639,-0.45016 -0.17639,-0.78477 0,-0.48102 0.40157,-0.83108 1.91823,-1.67219 2.08539,-1.15652 2.61157,-1.27313 3.09831,-0.68664 0.54895,0.66144 0.07,1.32101 -1.69746,2.33755 -1.60311,0.92203 -2.73611,1.21263 -3.14269,0.80605 z m -4.21129,-4.078135 c -0.25466,-0.148325 -0.46302,-0.457634 -0.46302,-0.68735 0,-0.451721 1.42017,-3.101433 2.06644,-3.855519 0.54746,-0.638778 1.55963,-0.596754 1.77238,0.07359 0.27264,0.859017 -2.01567,4.787774 -2.76491,4.747014 -0.0813,-0.004 -0.35622,-0.129403 -0.61089,-0.277731 z m -11.889965,-0.43018 c -0.229651,-0.261067 -0.797854,-1.155486 -1.262676,-1.987598 -0.989934,-1.772153 -0.919041,-2.588112 0.224853,-2.588112 0.630494,0 0.884036,0.271431 1.880724,2.013419 0.890482,1.556361 1.090261,2.111935 0.88006,2.447395 -0.38585,0.615784 -1.232678,0.672254 -1.722961,0.114896 z m 5.772181,-1.540397 c -0.299357,-0.780113 -0.182829,-4.500215 0.151435,-4.834479 0.174625,-0.174625 0.589076,-0.3175 0.921001,-0.3175 0.775475,0 0.924772,0.599154 0.824322,3.30818 l -0.07845,2.115778 -0.826121,0.08039 c -0.573196,0.05578 -0.876967,-0.05211 -0.992188,-0.35237 z"
         style="fill:#0a0a0a;stroke-width:0.26458332" />
    </g>
  </g>
</svg>
