<?xml version="1.0" encoding="UTF-8" standalone="no"?>
<svg
   xmlns:dc="http://purl.org/dc/elements/1.1/"
   xmlns:cc="http://creativecommons.org/ns#"
   xmlns:rdf="http://www.w3.org/1999/02/22-rdf-syntax-ns#"
   xmlns:svg="http://www.w3.org/2000/svg"
   xmlns="http://www.w3.org/2000/svg"
   id="svg3847"
   viewBox="-3.8701428 -3.8701428 88.641874 30.758371"
   height="83"
   width="239"
   version="1.0">
  <metadata
     id="metadata25">
    <rdf:RDF>
      <cc:Work
         rdf:about="">
        <dc:format>image/svg+xml</dc:format>
        <dc:type
           rdf:resource="http://purl.org/dc/dcmitype/StillImage" />
        <dc:title></dc:title>
      </cc:Work>
    </rdf:RDF>
  </metadata>
  <defs
     id="defs3849" />
  <g
     transform="matrix(0.23814169,0,0,0.23814169,-3.8667834,-3.8763996)"
     id="g46">
    <path
       d="m 372.0475,96.157119 v -85.93875 c 0,-2.8487502 -2.31,-5.1587502 -5.16,-5.1587502 h -241.18 c 13.29,11.4725002 21.74375,28.6612502 21.74375,47.8837502 0,19.495 -8.69,36.9025 -22.30625,48.372501 h 241.7425 c 2.85,0 5.16,-2.308751 5.16,-5.158751 M 40.85375,5.0596188 H 5.16 c -2.85,0 -5.16,2.31 -5.16,5.1587502 v 85.93875 c 0,2.85 2.31,5.158751 5.16,5.158751 H 41.415 C 27.79875,89.845869 19.11,72.438369 19.11,52.943369 c 0,-19.2225 8.45375,-36.41125 21.74375,-47.8837502"
       id="path2598"
       style="fill:#7a003f;fill-opacity:1;fill-rule:nonzero;stroke:none" />
    <path
       d="m 348.81349,86.328249 v -8.71625 c 0,-0.37125 -0.315,-0.685 -0.68625,-0.685 h -4.82875 c -0.37125,0 -0.68625,0.31375 -0.68625,0.685 v 1.34375 c 0,0.37125 0.315,0.68625 0.68625,0.68625 h 2.515 v 5.62875 c -0.5725,0.17125 -1.1725,0.2575 -1.82875,0.2575 -3.02875,0 -4.83,-1.82875 -4.83,-6.9725 0,-5.03 1.54375,-7.25875 4.60125,-7.25875 1.485,0 2.48625,0.34375 3.48625,0.82875 0.3425,0.1725 0.68625,0 0.82875,-0.31375 l 0.57125,-1.22875 c 0.17125,-0.3425 0.0575,-0.68625 -0.31375,-0.88625 -1.25875,-0.65625 -2.88625,-1.085 -4.5725,-1.085 -4.9725,0 -7.83,3.8 -7.83,9.7425 0,6.17375 2.3425,9.86 7.7725,9.86 1.5425,0 3.14375,-0.28625 4.23,-0.68625 0.685,-0.25625 0.885,-0.5425 0.885,-1.2 m -19.4625,0.82875 c -0.82875,-2.28625 -1.9425,-5.0575 -2.4,-6.03 -0.6,-1.2575 -1.68625,-2.4575 -3.0575,-2.7425 2.9425,-0.4575 4.20125,-2.4575 4.20125,-4.715 0,-1.915 -1.00125,-4.88625 -5.83,-4.88625 h -5.03 c -0.37,0 -0.685,0.31375 -0.685,0.685 v 17.9175 c 0,0.3425 0.315,0.6575 0.685,0.6575 h 1.65875 c 0.37125,0 0.685,-0.315 0.685,-0.6575 v -7.85875 h 1.17125 c 1.715,0 2.5725,1.14375 3.22875,2.4 0.80125,1.515 1.28625,3.54375 1.94375,5.515 0.14375,0.48625 0.4575,0.60125 0.8575,0.60125 h 2.085 c 0.60125,0 0.68625,-0.3725 0.48625,-0.88625 m -21.69375,-5.08625 v -12.6025 c 0,-0.4275 -0.28625,-0.685 -0.68625,-0.685 h -1.62875 c -0.42875,0 -0.715,0.2275 -0.715,0.685 v 12.45875 c 0,2.915 -1.2,3.7725 -3.315,3.7725 -2.3425,0 -3.17125,-1.42875 -3.17125,-3.94375 v -12.2875 c 0,-0.4575 -0.2575,-0.685 -0.68625,-0.685 h -1.6575 c -0.4,0 -0.65625,0.2575 -0.65625,0.685 v 12.6025 c 0,3.88625 2,6.14375 6.22875,6.14375 4.115,0 6.2875,-2.1725 6.2875,-6.14375 m -20.18,0.5425 c 0,-2.4 -1.37125,-4.37125 -3.97125,-4.8 2.2,-0.715 3.1425,-2.11625 3.1425,-4.14375 0,-2.83 -1.9425,-4.88625 -5.2575,-4.88625 h -5.68625 c -0.37125,0 -0.68625,0.31375 -0.68625,0.685 v 17.9175 c 0,0.3425 0.315,0.6575 0.68625,0.6575 h 6 c 3.65875,0 5.7725,-1.9725 5.7725,-5.43 m -21.83375,4.74375 v -1.4 c 0,-0.3725 -0.3425,-0.68625 -0.71375,-0.68625 h -6.74375 v -6.115 h 5.82875 c 0.37125,0 0.715,-0.315 0.715,-0.71375 v -1.20125 c 0,-0.37125 -0.34375,-0.6575 -0.715,-0.6575 h -5.82875 v -5.115 h 6.515 c 0.4,0 0.68625,-0.3425 0.68625,-0.71375 v -1.28625 c 0,-0.37125 -0.315,-0.685 -0.68625,-0.685 h -8.85875 c -0.37125,0 -0.685,0.31375 -0.685,0.685 v 17.88875 c 0,0.37125 0.31375,0.68625 0.685,0.68625 h 9.0875 c 0.37125,0 0.71375,-0.315 0.71375,-0.68625 m -18.75375,-9.05875 c 0,-7.34375 -3.14375,-9.515 -7.20125,-9.515 h -4.54375 c -0.37125,0 -0.685,0.31375 -0.685,0.685 v 17.88875 c 0,0.37125 0.31375,0.68625 0.685,0.68625 h 4.6575 c 5.43,0 7.0875,-3.63 7.0875,-9.745 m -21.56,8.03 v -8.71625 c 0,-0.37125 -0.31375,-0.685 -0.685,-0.685 h -4.82875 c -0.3725,0 -0.68625,0.31375 -0.68625,0.685 v 1.34375 c 0,0.37125 0.31375,0.68625 0.68625,0.68625 h 2.51375 v 5.62875 c -0.57125,0.17125 -1.17125,0.2575 -1.82875,0.2575 -3.02875,0 -4.82875,-1.82875 -4.82875,-6.9725 0,-5.03 1.5425,-7.25875 4.6,-7.25875 1.48625,0 2.48625,0.34375 3.48625,0.82875 0.3425,0.1725 0.68625,0 0.82875,-0.31375 l 0.5725,-1.22875 c 0.17,-0.3425 0.0563,-0.68625 -0.315,-0.88625 -1.2575,-0.65625 -2.88625,-1.085 -4.5725,-1.085 -4.97125,0 -7.83,3.8 -7.83,9.7425 0,6.17375 2.34375,9.86 7.7725,9.86 1.54375,0 3.14375,-0.28625 4.23,-0.68625 0.685,-0.25625 0.885,-0.5425 0.885,-1.2 m -18.745,0.915 -5.48625,-17.80375 c -0.14375,-0.42875 -0.48625,-0.65625 -0.8575,-0.65625 h -2.51375 c -0.3725,0 -0.7725,0.2575 -0.88625,0.65625 l -5.115,17.80375 c -0.115,0.4275 0.085,0.8 0.51375,0.8 h 1.8575 c 0.4,0 0.7425,-0.2575 0.82875,-0.63 l 1.085,-4.22875 h 6.03 l 1.14375,4.22875 c 0.11375,0.3725 0.485,0.63 0.885,0.63 h 2 c 0.42875,0 0.6575,-0.3725 0.515,-0.8 m 118.4225,-13.17375 c 0,1.8 -1.17125,3 -3.1425,3 h -2.28625 v -5.62875 h 2.60125 c 1.91375,0 2.8275,1.25625 2.8275,2.62875 m -40.78625,8.1725 c 0,1.9425 -1.115,3.1425 -2.91625,3.1425 h -3.25625 v -6.2575 h 2.77125 c 2.14375,0 3.40125,1.37125 3.40125,3.115 m -0.68625,-8.23 c 0,1.62875 -1,2.71375 -2.9725,2.71375 h -2.51375 v -5.4 h 2.685 c 1.88625,0 2.80125,1.00125 2.80125,2.68625 m -39.84625,4.4575 c 0,5.74375 -1.57125,6.945 -4.3725,6.945 h -1.82875 v -14.08875 h 1.88625 c 1.22875,0 2.34375,0.42875 3.02875,1.31375 0.8575,1.115 1.28625,2.7725 1.28625,5.83 m -42.3325,2.08625 h -4.68625 l 1.8575,-7.515 c 0.19875,-0.8 0.3425,-1.88625 0.42875,-2.68625 0.11375,0.77125 0.2275,1.915 0.4275,2.68625 z m -26.27,7.4875 h 0.9525 c 0.38875,0 0.7475,-0.2575 0.8375,-0.6575 l 3.5375,-12.02875 c 0.30625,-1.25 0.64,-2.945 0.87375,-3.93375 -0.0425,0.77 -0.18,3.28125 -0.1875,3.9675 l -0.0462,11.995 c 0.03,0.37125 0.35875,0.6575 0.7175,0.6575 h 1.455 c 0.3875,0 0.71625,-0.315 0.71625,-0.6575 v -17.94625 c 0,-0.37125 -0.32875,-0.65625 -0.71625,-0.65625 h -3.235 c -0.35875,0 -0.74625,0.2575 -0.83625,0.57125 l -3.73125,13.09625 c -0.18,0.70875 -0.29375,1.91875 -0.37875,2.89875 -0.085,-0.98 -0.19875,-2.19 -0.3775,-2.89875 l -3.73125,-13.09625 c -0.09,-0.31375 -0.47875,-0.57125 -0.8375,-0.57125 h -3.245 c -0.38875,0 -0.7175,0.285 -0.7175,0.65625 v 17.94625 c 0,0.3425 0.32875,0.6575 0.7175,0.6575 h 1.465 c 0.36,0 0.68875,-0.28625 0.71875,-0.6575 l -0.0462,-11.995 c -0.008,-0.68625 -0.145,-3.1975 -0.1875,-3.9675 0.23375,0.98875 0.5675,2.68375 0.87375,3.93375 l 3.52875,12.02875 c 0.09,0.4 0.44875,0.6575 0.8375,0.6575 z"
       id="path2602"
       style="fill:#ffffff;fill-opacity:1;fill-rule:nonzero;stroke:none" />
    <path
       d="m 349.32937,45.627119 v -1.4 c 0,-0.37125 -0.285,-0.68625 -0.6575,-0.68625 h -11.14375 c -0.37125,0 -0.715,0.315 -0.715,0.68625 v 1.4 c 0,0.37125 0.34375,0.65625 0.715,0.65625 h 4.0575 v 15.83125 c 0,0.3725 0.31375,0.68625 0.68625,0.68625 h 1.65625 c 0.3725,0 0.68625,-0.31375 0.68625,-0.68625 v -15.83125 h 4.0575 c 0.3725,0 0.6575,-0.285 0.6575,-0.65625 m -15.83125,16.37375 -5.48625,-17.8025 c -0.14375,-0.42875 -0.48625,-0.6575 -0.8575,-0.6575 h -2.515 c -0.37125,0 -0.77125,0.2575 -0.88625,0.6575 l -5.115,17.8025 c -0.11375,0.42875 0.0863,0.8 0.515,0.8 h 1.85625 c 0.4,0 0.74375,-0.2575 0.83,-0.62875 l 1.085,-4.22875 h 6.03 l 1.1425,4.22875 c 0.115,0.37125 0.48625,0.62875 0.88625,0.62875 h 2 c 0.42875,0 0.6575,-0.37125 0.515,-0.8 m -8.77375,-21.68875 c 0,-0.9425 -0.77125,-1.6575 -1.71375,-1.6575 -0.88625,0 -1.62875,0.715 -1.62875,1.6575 0,0.9425 0.7425,1.71375 1.6575,1.71375 0.9425,0 1.685,-0.77125 1.685,-1.71375 m 5.83,0 c 0,-0.9425 -0.77125,-1.6575 -1.715,-1.6575 -0.885,0 -1.62875,0.715 -1.62875,1.6575 0,0.9425 0.74375,1.71375 1.6575,1.71375 0.94375,0 1.68625,-0.77125 1.68625,-1.71375 m -15.64625,5.315 v -1.4 c 0,-0.37125 -0.285,-0.68625 -0.65625,-0.68625 h -11.145 c -0.37125,0 -0.71375,0.315 -0.71375,0.68625 v 1.4 c 0,0.37125 0.3425,0.65625 0.71375,0.65625 h 4.0575 v 15.83125 c 0,0.3725 0.315,0.68625 0.68625,0.68625 h 1.6575 c 0.37125,0 0.68625,-0.31375 0.68625,-0.68625 v -15.83125 h 4.0575 c 0.37125,0 0.65625,-0.285 0.65625,-0.65625 m -18.53625,16.4875 v -17.8875 c 0,-0.37125 -0.315,-0.68625 -0.68625,-0.68625 h -1.77125 c -0.3725,0 -0.68625,0.315 -0.68625,0.68625 v 17.8875 c 0,0.3725 0.31375,0.68625 0.68625,0.68625 h 1.77125 c 0.37125,0 0.68625,-0.31375 0.68625,-0.68625 m -9.98625,-4.8 c 0,-3.02875 -1.74375,-4.34375 -3.7725,-5.28625 l -1.54375,-0.715 c -1.51375,-0.715 -2.8,-1.28625 -2.8,-2.80125 0,-1.57125 0.94375,-2.51375 2.8,-2.51375 1.28625,0 2.0575,0.285 2.9725,0.6 0.37125,0.11375 0.685,-0.08625 0.77125,-0.42875 l 0.315,-1.28625 c 0.085,-0.3425 -0.0288,-0.71375 -0.37125,-0.82875 -0.9725,-0.3425 -2.3725,-0.685 -3.74375,-0.685 -3.6575,0 -5.83,2.2575 -5.83,5.2875 0,2.77125 1.6,3.97125 3.3725,4.8 l 1.17125,0.5425 c 1.7725,0.82875 3.54375,1.6 3.54375,3.54375 0,1.77125 -1.3725,2.71375 -3.2575,2.71375 -1.42875,0 -2.74375,-0.42875 -3.83,-0.82875 -0.4,-0.1425 -0.77125,0.0575 -0.85625,0.42875 l -0.34375,1.42875 c -0.085,0.34375 0.0575,0.715 0.42875,0.8575 1.2,0.45625 3.00125,0.82875 4.6575,0.82875 3.9725,0 6.31625,-2.31375 6.31625,-5.6575 m -17.06625,4.6 c -0.8275,-2.28625 -1.9425,-5.0575 -2.4,-6.02875 -0.6,-1.2575 -1.68625,-2.4575 -3.0575,-2.7425 2.94375,-0.45875 4.2,-2.4575 4.2,-4.71625 0,-1.915 -1,-4.88625 -5.82875,-4.88625 h -5.02875 c -0.3725,0 -0.68625,0.315 -0.68625,0.68625 v 17.91625 c 0,0.34375 0.31375,0.6575 0.68625,0.6575 h 1.65625 c 0.3725,0 0.68625,-0.31375 0.68625,-0.6575 v -7.8575 h 1.1725 c 1.71375,0 2.57125,1.1425 3.22875,2.4 0.8,1.515 1.285,3.54375 1.9425,5.515 0.1425,0.48625 0.4575,0.6 0.8575,0.6 h 2.08625 c 0.6,0 0.685,-0.37125 0.485,-0.88625 m -20.195,0.2 v -1.4 c 0,-0.37125 -0.3425,-0.685 -0.71375,-0.685 h -6.74375 v -6.11625 h 5.82875 c 0.37125,0 0.715,-0.31375 0.715,-0.71375 v -1.2 c 0,-0.37125 -0.34375,-0.6575 -0.715,-0.6575 h -5.82875 v -5.115 h 6.515 c 0.4,0 0.68625,-0.3425 0.68625,-0.71375 v -1.28625 c 0,-0.37125 -0.315,-0.68625 -0.68625,-0.68625 h -8.85875 c -0.37125,0 -0.685,0.315 -0.685,0.68625 v 17.8875 c 0,0.3725 0.31375,0.68625 0.685,0.68625 h 9.0875 c 0.37125,0 0.71375,-0.31375 0.71375,-0.68625 m -17.155,-17.8025 c 0.11375,-0.4 -0.11375,-0.77125 -0.5425,-0.77125 h -1.715 c -0.4575,0 -0.7425,0.2575 -0.8575,0.71375 l -3.28625,12.91625 c -0.2275,0.915 -0.42875,2.43 -0.6,3.745 -0.11375,-1.315 -0.37125,-2.83 -0.6,-3.745 l -3.28625,-12.94375 c -0.11375,-0.4575 -0.42875,-0.68625 -0.88625,-0.68625 h -1.97125 c -0.42875,0 -0.6575,0.37125 -0.5425,0.80125 l 5.28625,17.83 c 0.115,0.37125 0.48625,0.62875 0.8575,0.62875 h 2.17125 c 0.3725,0 0.7425,-0.2575 0.8575,-0.62875 z m -21.21875,17.8025 v -17.8875 c 0,-0.37125 -0.31375,-0.68625 -0.685,-0.68625 h -1.77125 c -0.3725,0 -0.68625,0.315 -0.68625,0.68625 v 17.8875 c 0,0.3725 0.31375,0.68625 0.68625,0.68625 h 1.77125 c 0.37125,0 0.685,-0.31375 0.685,-0.68625 m -11.485,0.02875 v -17.945 c 0,-0.3425 -0.3425,-0.6575 -0.71375,-0.6575 h -1.4575 c -0.37125,0 -0.685,0.315 -0.685,0.6575 l 0.0275,11.115 c 0,1.34375 0.1425,3.11625 0.28625,4.60125 -0.4,-1.4 -0.74375,-2.8 -1.2575,-4.0575 l -4.83,-11.8025 c -0.1425,-0.31375 -0.5425,-0.51375 -0.91375,-0.51375 h -2.68625 c -0.37125,0 -0.68625,0.28625 -0.68625,0.6575 v 17.945 c 0,0.34375 0.315,0.6575 0.68625,0.6575 h 1.51375 c 0.3725,0 0.68625,-0.31375 0.68625,-0.6575 l -0.0288,-11.31625 c 0,-1.05625 -0.25625,-3.3425 -0.4,-4.8 0.3725,1.4575 0.74375,3.0575 1.25875,4.2575 l 5.02875,11.97375 c 0.1425,0.34125 0.4,0.5425 0.77125,0.5425 h 2.68625 c 0.37125,0 0.71375,-0.31375 0.71375,-0.6575 m -20.61375,-5.315 v -12.60125 c 0,-0.42875 -0.28625,-0.68625 -0.68625,-0.68625 h -1.62875 c -0.4275,0 -0.71375,0.22875 -0.71375,0.68625 v 12.45875 c 0,2.915 -1.2,3.7725 -3.315,3.7725 -2.34375,0 -3.17125,-1.43 -3.17125,-3.94375 v -12.2875 c 0,-0.4575 -0.2575,-0.68625 -0.68625,-0.68625 h -1.6575 c -0.4,0 -0.6575,0.2575 -0.6575,0.68625 v 12.60125 c 0,3.88625 2,6.14375 6.23,6.14375 4.11375,0 6.28625,-2.1725 6.28625,-6.14375 m 149.61625,-1.515 h -4.68625 l 1.8575,-7.515 c 0.2,-0.8 0.3425,-1.88625 0.42875,-2.68625 0.11375,0.7725 0.22875,1.915 0.42875,2.68625 z m -63.29125,-6.48625 c 0,1.80125 -1.1725,3.00125 -3.14375,3.00125 h -2.28625 v -5.63 h 2.6 c 1.915,0 2.83,1.2575 2.83,2.62875"
       id="path2606"
       style="fill:#ffffff;fill-opacity:1;fill-rule:nonzero;stroke:none" />
    <path
       d="m 348.81349,30.174999 v -0.89 c 0,-0.23625 -0.21875,-0.43625 -0.455,-0.43625 h -4.29125 v -3.89125 h 3.71 c 0.23625,0 0.455,-0.2 0.455,-0.455 v -0.76375 c 0,-0.23625 -0.21875,-0.4175 -0.455,-0.4175 h -3.71 v -3.255 h 4.14625 c 0.255,0 0.43625,-0.2175 0.43625,-0.455 v -0.8175 c 0,-0.23625 -0.2,-0.4375 -0.43625,-0.4375 h -5.63625 c -0.2375,0 -0.43625,0.20125 -0.43625,0.4375 v 11.38125 c 0,0.2375 0.19875,0.43625 0.43625,0.43625 h 5.78125 c 0.23625,0 0.455,-0.19875 0.455,-0.43625"
       id="path2610"
       style="fill:#ffffff;fill-opacity:1;fill-rule:nonzero;stroke:none" />
    <path
       d="m 338.23162,30.102619 -3.90875,-6.2725 3.545,-4.965 c 0.145,-0.2175 0.1275,-0.50875 -0.23625,-0.50875 h -1.3825 c -0.2725,0 -0.43625,0.07375 -0.58125,0.29125 l -3.2,4.855 v -4.71 c 0,-0.23625 -0.2,-0.43625 -0.43625,-0.43625 h -1.055 c -0.23625,0 -0.43625,0.2 -0.43625,0.43625 v 11.40125 c 0,0.21875 0.2,0.4175 0.43625,0.4175 h 1.055 c 0.23625,0 0.43625,-0.19875 0.43625,-0.4175 v -5.94625 l 3.43625,6.03625 c 0.14625,0.255 0.345,0.3275 0.61875,0.3275 h 1.4725 c 0.30875,0 0.41875,-0.2175 0.23625,-0.50875"
       id="path2614"
       style="fill:#ffffff;fill-opacity:1;fill-rule:nonzero;stroke:none" />
    <path
       d="m 326.44112,29.666369 -0.4,-0.8725 c -0.0725,-0.1825 -0.29125,-0.255 -0.50875,-0.16375 -0.36375,0.16375 -0.98125,0.345 -1.41875,0.345 -1.76375,0 -2.96375,-1.29 -2.96375,-4.5275 0,-3.2175 1.1275,-4.50875 2.96375,-4.50875 0.50875,0 0.94625,0.1275 1.34625,0.30875 0.23625,0.11 0.4175,0.0375 0.52625,-0.1625 l 0.3825,-0.74625 c 0.1275,-0.23625 0.0362,-0.47375 -0.18125,-0.6 -0.67375,-0.4 -1.51,-0.49 -2.21875,-0.49 -2.945,0 -4.855,2.41625 -4.855,6.18125 0,4.05375 1.8,6.29 4.7825,6.29 1,0 1.745,-0.2 2.38125,-0.52625 0.16375,-0.0725 0.2725,-0.29125 0.16375,-0.5275"
       id="path2618"
       style="fill:#ffffff;fill-opacity:1;fill-rule:nonzero;stroke:none" />
    <path
       d="m 314.48424,30.174999 v -11.38125 c 0,-0.23625 -0.2,-0.4375 -0.43625,-0.4375 h -1.1275 c -0.23625,0 -0.43625,0.20125 -0.43625,0.4375 v 11.38125 c 0,0.2375 0.2,0.43625 0.43625,0.43625 h 1.1275 c 0.23625,0 0.43625,-0.19875 0.43625,-0.43625"
       id="path2622"
       style="fill:#ffffff;fill-opacity:1;fill-rule:nonzero;stroke:none" />
    <path
       d="m 304.85662,24.465999 c 1.8725,-0.29125 2.6725,-1.56375 2.6725,-3 0,-1.21875 -0.63625,-3.10875 -3.70875,-3.10875 h -3.2 c -0.23625,0 -0.43625,0.2 -0.43625,0.43625 v 11.4 c 0,0.21875 0.2,0.4175 0.43625,0.4175 h 1.05375 c 0.2375,0 0.4375,-0.19875 0.4375,-0.4175 v -5 h 0.745 c 1.09125,0 1.63625,0.7275 2.055,1.5275 0.50875,0.96375 0.8175,2.25375 1.23625,3.50875 0.0913,0.30875 0.29,0.38125 0.545,0.38125 h 1.3275 c 0.38125,0 0.43625,-0.23625 0.30875,-0.5625 -0.52625,-1.455 -1.23625,-3.21875 -1.52625,-3.8375 -0.3825,-0.79875 -1.07375,-1.56375 -1.94625,-1.745 m -1.29125,-0.83625 h -1.45375 v -3.5825 h 1.65375 c 1.21875,0 1.8,0.80125 1.8,1.67375 0,1.145 -0.745,1.90875 -2,1.90875"
       id="path2626"
       style="fill:#ffffff;fill-opacity:1;fill-rule:nonzero;stroke:none" />
    <path
       d="m 295.59099,30.174999 v -0.89 c 0,-0.23625 -0.21875,-0.43625 -0.455,-0.43625 h -4.29 v -3.89125 h 3.70875 c 0.23625,0 0.455,-0.2 0.455,-0.455 v -0.76375 c 0,-0.23625 -0.21875,-0.4175 -0.455,-0.4175 h -3.70875 v -3.255 h 4.145 c 0.255,0 0.43625,-0.2175 0.43625,-0.455 v -0.8175 c 0,-0.23625 -0.2,-0.4375 -0.43625,-0.4375 h -5.63625 c -0.23625,0 -0.43625,0.20125 -0.43625,0.4375 v 11.38125 c 0,0.2375 0.2,0.43625 0.43625,0.43625 h 5.78125 c 0.23625,0 0.455,-0.19875 0.455,-0.43625"
       id="path2630"
       style="fill:#ffffff;fill-opacity:1;fill-rule:nonzero;stroke:none" />
    <path
       d="m 283.72612,26.811869 v -8.01875 c 0,-0.2725 -0.18125,-0.43625 -0.43625,-0.43625 h -1.03625 c -0.2725,0 -0.455,0.145 -0.455,0.43625 v 7.9275 c 0,1.855 -0.76375,2.4 -2.10875,2.4 -1.49125,0 -2.01875,-0.90875 -2.01875,-2.50875 v -7.81875 c 0,-0.29125 -0.16375,-0.43625 -0.43625,-0.43625 h -1.05375 c -0.255,0 -0.41875,0.16375 -0.41875,0.43625 v 8.01875 c 0,2.4725 1.2725,3.90875 3.96375,3.90875 2.61875,0 4,-1.38125 4,-3.90875"
       id="path2634"
       style="fill:#ffffff;fill-opacity:1;fill-rule:nonzero;stroke:none" />
    <path
       d="m 270.66262,29.520869 v -5.54625 c 0,-0.23625 -0.2,-0.43625 -0.43625,-0.43625 h -3.0725 c -0.23625,0 -0.43625,0.2 -0.43625,0.43625 v 0.855 c 0,0.23625 0.2,0.43625 0.43625,0.43625 h 1.6 v 3.5825 c -0.36375,0.10875 -0.745,0.16375 -1.16375,0.16375 -1.9275,0 -3.0725,-1.16375 -3.0725,-4.43625 0,-3.2 0.98125,-4.61875 2.9275,-4.61875 0.945,0 1.58125,0.2175 2.2175,0.5275 0.21875,0.10875 0.43625,0 0.5275,-0.2 l 0.36375,-0.78125 c 0.10875,-0.21875 0.0362,-0.4375 -0.2,-0.565 -0.8,-0.4175 -1.83625,-0.69 -2.90875,-0.69 -3.16375,0 -4.9825,2.4175 -4.9825,6.19875 0,3.92875 1.49125,6.27375 4.945,6.27375 0.9825,0 2,-0.18125 2.69125,-0.43625 0.43625,-0.16375 0.56375,-0.34625 0.56375,-0.76375"
       id="path2638"
       style="fill:#ffffff;fill-opacity:1;fill-rule:nonzero;stroke:none" />
    <path
       d="m 250.56624,30.193499 v -11.41875 c 0,-0.2175 -0.21875,-0.4175 -0.455,-0.4175 h -0.92625 c -0.23625,0 -0.4375,0.2 -0.4375,0.4175 l 0.0188,7.07375 c 0,0.85375 0.0913,1.98125 0.1825,2.92625 -0.255,-0.89 -0.47375,-1.78125 -0.8,-2.58125 l -3.07375,-7.51 c -0.0913,-0.2 -0.345,-0.32625 -0.58125,-0.32625 h -1.71 c -0.23625,0 -0.43625,0.18125 -0.43625,0.4175 v 11.41875 c 0,0.21875 0.2,0.4175 0.43625,0.4175 h 0.96375 c 0.23625,0 0.43625,-0.19875 0.43625,-0.4175 l -0.0175,-7.2 c 0,-0.6725 -0.16375,-2.1275 -0.255,-3.055 0.23625,0.9275 0.4725,1.94625 0.8,2.71 l 3.2,7.6175 c 0.0913,0.21875 0.255,0.345 0.49125,0.345 h 1.70875 c 0.23625,0 0.455,-0.19875 0.455,-0.4175"
       id="path2642"
       style="fill:#ffffff;fill-opacity:1;fill-rule:nonzero;stroke:none" />
    <path
       d="m 238.00912,24.539119 c 0,-4.23625 -1.455,-6.29125 -4.255,-6.29125 -2.85375,0 -4.29,2.16375 -4.29,6.29125 0,4.1825 1.45375,6.18125 4.29,6.18125 2.81875,0 4.255,-2.03625 4.255,-6.18125 m -2,-0.055 c 0,2.83625 -0.4725,4.63625 -2.2725,4.63625 -1.70875,0 -2.255,-1.5625 -2.255,-4.63625 0,-2.41875 0.23625,-4.69 2.255,-4.69 1.8725,0 2.2725,2.0725 2.2725,4.69"
       id="path2646"
       style="fill:#ffffff;fill-opacity:1;fill-rule:nonzero;stroke:none" />
    <path
       d="m 226.43637,18.847869 c 0.0725,-0.255 -0.0725,-0.49125 -0.345,-0.49125 h -1.09125 c -0.29125,0 -0.47375,0.16375 -0.54625,0.455 l -2.09125,8.2175 c -0.145,0.58375 -0.2725,1.54625 -0.38125,2.3825 -0.0725,-0.83625 -0.23625,-1.79875 -0.38125,-2.3825 l -2.09125,-8.23625 c -0.0725,-0.29 -0.2725,-0.43625 -0.56375,-0.43625 h -1.255 c -0.2725,0 -0.4175,0.23625 -0.345,0.50875 l 3.36375,11.34625 c 0.0725,0.23625 0.30875,0.4 0.545,0.4 h 1.3825 c 0.23625,0 0.4725,-0.16375 0.545,-0.4 z"
       id="path2650"
       style="fill:#ffffff;fill-opacity:1;fill-rule:nonzero;stroke:none" />
    <path
       d="m 206.4505,24.539119 c 0,-4.23625 -1.455,-6.29125 -4.255,-6.29125 -2.855,0 -4.29125,2.16375 -4.29125,6.29125 0,4.1825 1.455,6.18125 4.29125,6.18125 2.81875,0 4.255,-2.03625 4.255,-6.18125 m -2,-0.055 c 0,2.83625 -0.4725,4.63625 -2.2725,4.63625 -1.71,0 -2.255,-1.5625 -2.255,-4.63625 0,-2.41875 0.23625,-4.69 2.255,-4.69 1.8725,0 2.2725,2.0725 2.2725,4.69"
       id="path2654"
       style="fill:#ffffff;fill-opacity:1;fill-rule:nonzero;stroke:none" />
    <path
       d="m 195.23562,19.684499 v -0.89125 c 0,-0.23625 -0.18125,-0.43625 -0.4175,-0.43625 h -7.09125 c -0.23625,0 -0.455,0.2 -0.455,0.43625 v 0.89125 c 0,0.23625 0.21875,0.4175 0.455,0.4175 h 2.58125 v 10.0725 c 0,0.2375 0.2,0.4375 0.43625,0.4375 h 1.055 c 0.23625,0 0.43625,-0.2 0.43625,-0.4375 v -10.0725 h 2.5825 c 0.23625,0 0.4175,-0.18125 0.4175,-0.4175"
       id="path2658"
       style="fill:#ffffff;fill-opacity:1;fill-rule:nonzero;stroke:none" />
    <path
       d="m 184.60262,19.684499 v -0.89125 c 0,-0.23625 -0.1825,-0.43625 -0.41875,-0.43625 h -7.09125 c -0.23625,0 -0.45375,0.2 -0.45375,0.43625 v 0.89125 c 0,0.23625 0.2175,0.4175 0.45375,0.4175 h 2.5825 v 10.0725 c 0,0.2375 0.2,0.4375 0.43625,0.4375 h 1.055 c 0.23625,0 0.43625,-0.2 0.43625,-0.4375 v -10.0725 h 2.58125 c 0.23625,0 0.41875,-0.18125 0.41875,-0.4175"
       id="path2662"
       style="fill:#ffffff;fill-opacity:1;fill-rule:nonzero;stroke:none" />
    <path
       d="m 174.15887,24.539119 c 0,-4.23625 -1.455,-6.29125 -4.255,-6.29125 -2.855,0 -4.29125,2.16375 -4.29125,6.29125 0,4.1825 1.455,6.18125 4.29125,6.18125 2.81875,0 4.255,-2.03625 4.255,-6.18125 m -2,-0.055 c 0,2.83625 -0.47375,4.63625 -2.27375,4.63625 -1.70875,0 -2.25375,-1.5625 -2.25375,-4.63625 0,-2.41875 0.23625,-4.69 2.25375,-4.69 1.87375,0 2.27375,2.0725 2.27375,4.69"
       id="path2666"
       style="fill:#ffffff;fill-opacity:1;fill-rule:nonzero;stroke:none" />
    <path
       d="m 136.01237,56.521499 c 0.0687,-6.90625 -4.1275,-4.5875 -5.5525,-8.10375 -1.3525,-3.33625 1.13375,-6.6325 -1.67875,-9.025 -1.00375,-0.855 -1.90875,-0.88 -3.03125,-1.59 -2.99375,-1.8925 -5.20875,-4.4875 -6.35875,-6.31875 -1.11625,-1.77875 0.0862,-3.56 -1.05625,-5.41375 -0.6075,-0.98625 -1.53875,-1.17875 -2,-2.2325 -0.46875,-1.06875 0.54375,-2.0825 -0.2275,-2.96 -1.29125,-1.46875 -2.51,-2.6375 -3.555,-5.93125 -3.175,-10.0112502 -7.2475,-8.7112502 -8.135,-9.2850002 -2.44625,-1.58375 -6.66875,-3.5025 -9.76125,-4.3225 -3.62875,-0.96374996 -5.81,-1.27749996 -8.60125,-1.33499996 -4.3425,-0.09125 -5.1875,1.40999996 -5.8425,1.35499996 -8.51875,-0.73249996 -12.45625,1.8875 -17.3925,4.36125 -6.14375,3.08 -9.49375,8.6287502 -11.05375,13.6500002 -0.77625,2.49625 -1.47625,3.8675 -2.37875,6.4425 -0.565,1.59375 -1.51875,2.6575 -2.85875,3.37 -1.21625,0.6475 -2.06,1.34375 -3.7325,1.4025 -1.42375,0.04875 -3.28125,0.81125 -3.66375,1.58125 l 0.09625,2.77125 c 0,0 0.80375,-0.24 2.11875,-1.45625 1.02125,-0.94375 1.92375,0.055 4.2275,0.3375 5.4,0.175 8.3525,-3.1675 8.66875,-3.87625 0.46125,-0.985 -0.005,-3.69375 0.59875,-4.13875 l 0.8675,-0.03 c -0.20125,1.62125 0.11375,3.54875 -1.17875,5.31 -1.6225,2.20875 -3.82125,2.78625 -4.42125,3 -3.49875,1.2525 -5.365,0.755 -7.12,0.53125 -2.02625,-0.2575 -0.14625,2.9125 -5.92375,2.28625 -1.945,-0.21 -3.9275,1.5475 -3.98125,3.1675 -0.0575,1.73625 0.1225,8.29375 0.315,8.7375 l 2.84,2.4875 c 0,0 -0.64125,-3.2275 1.49625,-2.3025 2.98375,1.2925 8.12625,0.0525 8.60875,-0.3275 -1.08125,1.00625 -1.23125,2.12875 -2.0625,3.1875 -1.8425,2.245 -5.61125,3.51375 -4.7,7.58 1.89875,8.4725 -2.05,8.04125 -2.05,8.04125 -2.4725,0.08625 -4.2925,-3.425 -4.2925,-3.425 l 0.17875,3.74625 c -0.03375,1.93625 3.675,6.28625 6.2375,5.22375 l 1.68125,3.28875 c 6.0625,0.99125 0.04625,5.5975 0.105,7.29125 l 2.52,5.2825 c 0.13,-0.43125 0.3825,-5.58125 2.87125,-5.36625 2.3375,0.20375 2.5575,2.33125 2.5575,2.33125 -4.28875,3.22125 0.895,8.53875 3.95,10.1575 0,0 0.38125,-0.695 1.07125,-0.8375 -1.50625,-0.55375 -2.46125,-1.67875 -2.16875,-2.73125 0.3,-1.08 0.52875,-0.89875 1.4125,-1.18 1.12375,-0.35625 1.42375,-0.04875 2.46,-0.57 1.1025,-0.555 1.4975,1.0025 2.505,0.7 0.74875,-0.225 1.89375,-1.18375 2.95875,-1.89875 -1.88125,2.4325 -3.51875,5.895 -7.07375,10.631251 -0.69,0.92125 -0.7525,8.2875 -0.39625,15.385 l 0.0625,1.16 c 0.32375,5.68625 0.9125,10.95875 1.65625,12.29375 0.09125,0.16375 -0.4775,0.24375 3.20375,-5.29375 l 0.8975,-1.3825 c 3.96,-6.27 9.535,-13.85375 14.85125,-18.76125 l 1.19625,-7.455001 c 0.2975,0.06125 0.61375,0.095 0.9425,0.08375 l -0.82625,7.365001 c 1.57375,0.435 4.43625,4.2425 11.90875,13.36125 l 1.31125,1.59875 c 4.25125,5.1775 9.4075,10.78875 9.65375,10.41 1.435,-2.21 17.8875,-29.548751 17.8875,-29.548751 0,0 -4.835,-6.8325 -6.26375,-11.3425 1.7575,-1.72875 1.635,-0.05125 6.22625,2.93625 3.55375,2.31125 4.96625,0.19 4.96625,0.19 0,0 -3.3,-1.95125 -3.31,-3.92 -0.0237,-4.3525 1.76375,-4.205 2.69125,-4.085 2.19875,0.28625 1.17375,2.2575 1.17375,2.2575 l 2.3175,-0.02 c 0,0 0.7575,-0.45 0.9975,-0.9425 1.6825,-3.44375 -5.87875,-5.32125 -7.115,-6.4025 -1.25375,-1.0975 -0.5,-3.24875 -0.5,-3.24875 3.90375,4.8225 6.375,3.6475 10.39375,2.54 l 4.1075,-4.135 c -4.3625,0.51625 -9.0625,4.4225 -12.43375,-5.6125 l 0.82875,-0.74875 c 1.98875,3.5725 4.14,4.9425 6.74875,5.09375 l 6.13375,-6.39625 c -7.14125,4.97375 -6.62875,-4.24625 -6.62875,-4.24625 7.30125,-0.375 8.80875,-3.295 8.82375,-4.72875 m -89.06125,11.62875 c 0.105,3.025 -2.75,4.7 -5.35125,4.79 0,0 -0.0725,-0.3 -0.32625,-0.4725 2.60125,-0.09125 5.25,-1.455 5.14375,-4.48 0,0 0.525,-0.07875 0.53375,0.1625 m 30.8875,34.346251 0.705,-5.278751 c 21.785,-2.55125 25.81875,-14.5125 25.81875,-14.5125 0,0 1.2675,-2.01125 1.47875,-1.365 3.03625,9.33625 8.58375,17.6 8.58375,17.6 l -16.11,26.971251 c -0.8675,-1.01125 -18.605,-22.5725 -20.47625,-23.415 M 63.53987,89.981499 c 1.555,4.74375 7.24,5.35625 8.985,6.01375 0.5875,0.22125 1.5325,0.185 1.5325,0.185 l -0.935,6.002501 c -11.86625,13.46375 -16.7275,23 -16.7275,23 -1.70625,-7.90625 -1.0075,-23.75 -1.0075,-23.75 0,0 4.36625,-6.231251 8.1525,-11.451251 m 4.425,-1.23125 c 0.02875,0.80625 0.17,1.32 0.075,2.13125 -0.2025,-0.5125 -0.795,-1.645 -0.795,-1.645 0.12125,-0.06125 0.56375,-1.46125 0.5575,-1.63375 0.20375,-1.21875 0.59625,-2.27125 1.56875,-2.59375 -0.105,0.52375 -0.4825,0.865 -0.92,1.82125 -0.45625,0.99625 -0.51375,1.11375 -0.48625,1.92 m 46.79125,-24.885 c -1.8525,0.18625 -2.89875,-1.3525 -2.89875,-1.3525 -2.3375,4.07875 -4.535,1.49125 -4.535,1.49125 0.0125,-2.91 -3.69875,14.7775 -4.265,17.49 -1.06125,2.0125 -5.05,9.24 -17.34125,12.90625 l 0.455,-0.24375 c 1.0475,-0.60125 1.37375,-1.49625 2.10875,-2.55 0.63875,-0.915 1.18125,-1.3675 1.5125,-2.4175 0.06875,-0.2175 -0.18,-0.6 -0.4675,-1.08 0.5525,-0.01875 2.34125,-1.58125 2.875,-2.11875 1.6025,-1.61375 2.98375,-2.52625 4.4,-4.19125 1.8275,-2.1975 3.50625,-3.41 4.8425,-5.59 0.93,-1.5325 1.2575,-2.6975 1.4975,-4.60875 0.395,-2.7825 1.62375,-6.28625 1.7675,-9.2325 -0.92625,1.6475 -1.315,2.81375 -1.63875,4.09375 -0.54375,2.0375 -0.62375,3.2525 -1.17375,5.1175 -0.54875,1.865 -0.74375,3.31375 -1.925,4.68125 -1.0025,1.18875 -2.07875,2.03375 -3.21625,2.88 -3.2275,2.445 -5.32875,6.1325 -9.84125,7.0725 -2.21125,-1.6475 -5.00875,-3.30125 -5.78,-3.20625 0,0 -0.99625,0.2775 -1.60125,0.29875 l -0.255,1.5825 c 0,0 0.89375,0.3625 0.87375,0.1525 -0.09625,-0.96625 0.76625,-1.035 0.72375,-0.57125 -0.045,0.48625 0.74125,3.4875 -0.50625,5.045 -0.225,0.28125 0.105,-4.1225 -1.24125,-3.59125 l -0.4875,2.01625 -0.61875,0.02125 c 0,0 0.10875,-0.4275 0.065,-1.6975 -0.0425,-1.225 -0.405,-2.2625 -2.29875,-3.22625 -0.4,-0.20375 -0.42625,2.4775 -0.8125,2.91125 l -1.4025,0.65375 c -0.25875,-0.88 -0.63,-2.03625 -0.19625,-2.0525 1.30625,-0.045 0.715,-1.135 1.04875,-1.91375 0.215,-0.5 0.58625,-0.635 0.50125,-1.29875 -0.34,-2.6475 0.05,-5.95375 -0.3825,-5.93875 -0.36375,0.0125 -0.66375,0.20125 -0.93125,-0.02875 -0.2775,-0.2375 -0.03125,-0.90625 -0.03125,-0.90625 -1.35875,0.1675 -0.79125,5.78 -0.79125,5.78 -0.56625,0.795 -1.7525,1.59 -2.3175,2.1575 0,0 -0.4175,0.32125 -0.50625,0.28125 -1.595,-0.0125 -3.22,2.69875 -3.22,2.69875 -0.61,0.13625 -2.735,-3.6625 -2.82875,-3.5925 -0.29,-1.26 0.26,-0.41 -0.7275,-3.1375 -0.1525,-1.0325 -1.2875,-5.2075 -1.44875,-5.4475 -2.26,-2.28875 -2.00375,-12.4075 -2.98,-14.95 -0.585,-1.5225 -2.63125,-2.02375 -2.83625,-3.8225 -0.36,-3.1675 0.1675,-4.55375 0.725,-7.4075 0.15875,-0.81625 0.0225,-1.34875 0.4175,-2.09125 0.45625,-0.8575 0.95875,-1.565 1.97375,-1.61 0.92625,-0.04125 1.1225,0.865 1.90625,1.32625 0.6775,0.39875 0.98375,0.87875 1.77,0.9675 2.86375,0.325 2.58375,-0.57375 2.58375,-0.57375 l 1.39875,-0.77625 c -0.44375,-0.2875 -1.16125,0.2175 -1.9125,0.24875 -0.85125,0.035 -1.37375,0.0975 -2.17625,-0.16625 -0.82125,-0.27 -2.365,-0.78 -1.72,-1.3325 0.44875,-0.38625 0.70625,0.70125 1.5525,0.06625 0,0 -1.37125,-1.1675 -0.94125,-2.08625 -0.2725,-0.27625 0.13375,-0.6525 0.465,-0.865 0.2875,-0.18375 0.62,-0.2025 0.86125,-0.21125 0,0 -0.34625,1.27125 -0.05375,2 0.33,0.8275 0.9375,1.23375 1.8475,1.45 0.5625,0.13375 0.93625,0.06875 1.485,-0.1125 0.805,-0.26625 1.405,-0.59375 1.56125,-1.4475 0.095,-0.52 0.0325,-0.84875 0.2,-1.34 0,0 0.52375,0.76875 1.03625,1.23625 0.32125,0.29375 -0.0075,0.7125 0.2225,1.0825 0.16,0.25375 0.33875,0.3725 0.6375,0.4625 0.41625,0.125 0.7675,0.0975 1.46875,-0.53625 0.12125,-0.235 0.19875,-0.35125 0.03875,-0.6675 -0.3325,-0.655 -0.78375,0.6325 -3.05125,-2.135 -0.5125,-0.62625 -1.0925,-0.6975 -1.89125,-0.9025 -0.95875,-0.24625 -1.49875,-0.31125 -2.54625,-0.1525 -0.2775,0.0975 -0.34,-0.02 -0.63875,-0.52375 0,0 0.25375,-0.3175 0.48125,-0.44 1.265,-0.68625 3.04,0.075 3.7025,-0.49375 -1,-0.20625 -0.5275,-0.4375 -0.94875,-0.51125 -1.43375,-0.2525 -1.05875,-0.145 -3.2875,-0.0675 0,0 -1.29375,0.2275 -2.07625,0.92125 -0.6825,0.605 -1.4925,1.62625 -1.4925,1.62625 -0.3,0.16 -0.54875,-0.47875 -0.64,-0.58375 0,0 0.72875,-1.69 1.5875,-2.4775 0.8825,-0.81 1.7,-1.02875 2.7375,-1.48875 0.93375,-0.41375 1.605,0.0975 2.6125,0.2725 1.10125,0.19 1.565,0.43 2.755,0.75125 0.8075,0.21875 0.6875,1.21875 1.47875,1.52375 0.20625,0.07875 0.39875,-0.0425 0.56125,0.10125 0.18375,0.16125 0.11875,0.4225 -0.04125,0.6075 -0.34625,0.39875 -0.86,-0.08125 -1.3725,-0.255 -0.29875,-0.1025 -0.38125,-0.35625 -0.69625,-0.4 -0.21625,-0.03 -0.3375,0.0525 -0.555,0.08 -0.74125,0.09375 0.95125,0.65125 1.46625,1.16 0.61125,0.6025 0.525,1.43125 1.3625,1.70875 0.39,0.12875 0.70625,-0.1225 1.05625,0.08375 0.42875,0.2525 0.43125,0.66125 0.47375,1.135 0.0175,0.19875 0.025,0.375 0.0125,0.54125 -0.03875,1.3675 -1.03375,1.81625 -1.3025,2.10375 -0.9475,1.01375 -0.42625,5.38 -0.29875,7.27875 0,0 -2.4325,4.2375 -0.76125,6.37 0.51625,0.65875 0.515,0.675 1.91,1.895 0,0 -0.9925,2.87625 -1.73625,3.06 -0.68125,-0.14875 -4.41375,1.17375 -5.18375,3.73875 l -0.09875,0.695 c 0.0088,0.26375 -1.92125,0.395 -3.35,-0.92125 -0.395,-0.36375 -0.67625,2.6375 -0.065,4.28875 0.27375,0.79875 0.69375,2.28375 2.76375,1.75 0.70625,-0.04375 2.17,-0.325 2.6725,-0.90125 0.1275,0.1275 3.51,2.01125 4.92125,1.9625 1.84125,-0.065 2.57875,-1.20625 2.57,-1.47 0,0 -0.74625,-0.03375 -1.61,0.05625 -2.99875,0.315 -2.775,-1.35625 -2.775,-1.35625 1.1525,-0.70625 1.27,-0.875 2.67875,-0.66375 1.1275,0.17 1.29875,0.24375 1.9825,0.5875 0.135,0.0175 0.50125,0.01625 0.6775,-0.045 0.91125,-0.32125 1.8725,-0.93125 3.9975,-0.5675 0.485,0.0825 2.15625,1.15375 3.93875,0.465 l -0.51375,-0.215 0.9225,0.025 -0.40875,0.19 c 0.99125,0.37875 0.54125,-0.1075 1.7175,-0.0575 1.5525,0.0675 0.93,3.54125 4.75375,2.98375 1.72625,-0.2525 1.38625,-6.46875 1.38625,-6.46875 l -0.805,0.02875 c 0.01125,2.11875 -0.67,3.54 -1.225,3.58625 -1.23625,0.10375 -1.23875,-1.32 -3.755,-2.38375 0,0 -0.8625,-1.0975 0.32125,-0.9575 0.93375,0.11125 1.025,1.81375 3.36125,1.2675 l 0.01875,-1.895 c -3.53125,0.1225 -3.5025,-3.1975 -7.27625,-3.135 -1.2725,0.02125 0.41,1.07625 -1.13625,1.19125 -1.05,0.0775 -0.48375,-0.58125 -2.3175,-0.28625 -0.4925,0.07875 -1.29375,-1.16 -1.18125,-1.93375 0.105,-0.7275 0.80125,-0.22375 0.95875,-0.9425 0,0 -0.88375,-2.5925 0.85625,-2.4725 0.84,0.05875 2.38,2.46125 3.21125,-0.35375 0.43625,-0.02 -0.37625,-0.10875 -0.37625,-0.10875 -0.215,-0.19625 -0.15375,0.92125 -0.8475,0.575 -1.13625,-0.56625 -0.71875,-1.065 -2.51125,-0.88125 -2.60625,0.2675 -1.8525,2.83125 -2.58375,2.33125 -3.87375,-2.65125 -5.5375,-4.10625 -3.155,-8.67125 l 0.34125,0.89625 c -0.15625,-2.72 -0.50125,-7.25125 0.0725,-8.6025 0.2425,-0.575 0.34,-1.66 0.47875,-2.505 0.445,-2.6875 0.42125,-5.81875 -0.53375,-6.15375 -2.9825,-1.0475 -2.26125,-3.80375 -5.345,-4.1575 l -5.64625,0.1625 c 0,0 -0.7925,-3.225 2.89,-4.3225 0,0 -0.43,-4.35125 0.8,-5.47875 0.96125,-0.88125 2.72875,0.02625 2.00875,-2.85625 -0.13125,-0.5225 -0.48125,-0.49375 -0.7725,-0.82125 -0.68,-0.76125 -1.00375,-0.32875 -1.6825,-2 -0.4325,-1.0675 2.0125,-2.735 2.0125,-2.735 8.60375,1.395 11.51375,-6.0750002 11.51375,-6.0750002 3.1925,5.7587502 10.32875,5.1175002 10.32875,5.1175002 1.7225,0.055 3.5675,0.10625 5.235,2.12375 1.14375,1.38375 1.37875,2.41125 3.18875,3.35 1.8775,0.9725 3.4325,-0.23625 3.4325,-0.23625 -1.9725,-0.16125 -3.3525,-1.22625 -4.1925,-2.8675 -3.04125,-5.9437502 -5.97,-5.6050002 -6.7975,-5.3612502 0.7375,-0.345 0.685,-1.0825 3.305,-0.73125 3.80625,0.51125 5.6675,6.9037502 8.115,7.2150002 3.73625,0.475 3.64,1.1325 2.7675,4.555 -1.09125,4.2775 -1.28625,8.19625 -0.035,13.20375 0.75875,3.03875 2.9675,4.26875 3.23375,7.3975 0.42125,4.95125 -1.71625,6.50625 -0.085,11.7525 1.1175,3.59375 -0.725,7.65625 3.31,9.57375 l 0.47375,-0.62125 c -3.91875,-2.165 -1.4325,-5.5225 -1.4325,-5.5225 -0.0413,5.9375 4.80625,6.2525 4.80625,6.2525 -1.60625,-1.09375 -0.31625,-1.9275 -0.31625,-1.9275 2.085,-0.67875 3.23625,3.1075 0.61375,3.37 m -40.74625,1.815 c 0.655,-0.6825 0.26375,-1.24 0.69625,-1.1775 0.5575,0.08 0.93,1.14 0.93,1.14 0,0 0.035,0.4325 0.71125,1.0575 0.72125,0.66625 2.825,0.765 3.79125,1.2075 l 2.00625,2.30375 c -0.96,-0.125 -1.7625,-0.60125 -2.38875,-0.96375 -2.79875,-1.76375 -4.8375,0.45625 -4.8375,0.45625 -1.8425,-1.7225 -2.62625,-1.2925 -5.94375,0.43875 -0.92,0.48 -1.485,-0.29375 -0.56875,-0.44125 0.255,-0.13125 1.27875,-2.10875 1.97875,-2.28 1.09625,-0.26875 2.68,-0.75625 3.625,-1.74125 M 63.73862,41.158999 c 0,0 0.6225,0.25125 0.82625,0.57625 0.12875,0.2075 0.145,0.60125 0.145,0.60125 -0.3275,0.49625 -1.56875,-0.55125 -0.97125,-1.1775 m 2.85625,0.1425 -0.34375,0.79875 -0.0275,-0.78625 z m 34.11125,-2.05 c 0.0662,0.24125 -1.25375,-2.15375 -1.76,-2.81125 -0.75875,-0.95375 -1.13,-0.9475 -1.82625,-1.8425 -0.38125,-0.5375 -1.0125,-2.27375 -1.6775,-2.32125 -2.0475,-0.14375 -3.42875,1.08375 -4.48125,1.16375 -0.57,0.04375 0.4225,-0.67375 0.4225,-0.67375 0.1775,-0.54875 -3.605,-0.72 -3.605,-0.72 0,0 -2.78875,-0.01 -2.95375,1.265 l 0.0075,0.48375 2.32,0.3875 c 0.99625,0.285 1.175,-0.0825 2.355,0.0775 l 2.16875,-0.04 1.92125,-0.58 1.025,0.095 c 0.30875,-0.005 0.60875,0.42875 0.72625,0.65875 0.70375,1.37875 1.44125,1.545 2.4875,2.5525 1.9925,1.91875 2.00875,2.68375 2.87,2.305 m -15.48375,-4.37375 c -0.55875,-0.05 -0.96875,1.41 -2.39125,1.5575 -1.91125,0.19875 -2.62375,-1.2825 -3.26375,-2.5425 0.06,-0.12125 -0.20625,-1.2675 -0.27125,-1.3875 l -0.49125,0.25125 c 0.0325,1.9975 0.815,4.34375 2.8075,4.97375 l 0.0275,1.69375 0.61875,-0.07125 c 0.2475,-0.005 0.2975,-0.7925 0.53625,-1.28125 0.06125,-0.1225 0.85625,-0.7425 1.47375,-0.875 0.865,-0.1375 1.85375,-0.3375 3.03,-0.35875 l -0.01125,-0.72625 -1.425,0.02625 -0.5,-0.23375 0.29875,-0.73125 c -0.065,-0.12 -0.25375,-0.27875 -0.43875,-0.295 m -3.675,19.165 -0.5575,0.01875 c 0.0375,0.36375 0.15125,0.555 0.27875,0.89875 0.19375,0.52375 -0.22,0.79625 0.72625,1.2475 l 0.05875,1.69375 0.5325,0.01 -0.0775,-2.2375 -0.46875,0.0475 z m 1.1475,-10.76375 c 0.0038,0.2425 -0.05375,0.54625 0.015,0.90875 l 1.36375,0.035 -0.19375,-0.48125 c 0,0 0.05625,-0.30375 0.05375,-0.485 l 0.55375,-0.2525 c 0.745,0.1075 1.0475,1.72625 2.59125,1.45625 0.06125,-0.01125 -0.03625,-0.535 -0.03625,-0.535 -1.43,-0.27625 -1.50375,-1.0625 -1.50375,-1.0625 1.02625,-1.6525 2.76,-1.685 2.765,-1.3825 l -0.17375,0.73 c 0.02625,1.63375 0.4225,3.08 2.3425,3.04375 1.3625,-0.025 2.46625,-0.77125 2.81875,-1.92875 0.3125,0.175 0.59125,0.56375 0.75875,0.955 0.2575,0.6 0.01125,0.665 0.01875,1.14875 0.0038,0.1825 -0.74125,0.135 -0.48,0.97875 l 0.93125,0.0425 0.72375,-1.16375 c -0.02375,-1.5125 -1.61125,-3.84375 -3.2325,-4.42 -0.4975,-0.1725 -1.30875,-0.52 -2.23875,-0.56375 l -1.9825,0.0375 c -0.55625,0.07 -1.3525,0.63 -1.3525,0.63 -0.96,0.2525 -0.88125,-0.83125 -0.88125,-0.83125 0.425,-0.575 0.48375,-0.735 2.21,-1.2525 l 2.29,-0.1625 c -0.1025,-0.1925 0.1375,-0.66875 0.1375,-0.66875 -4.275,0.01875 -5.60875,1.835 -5.8775,2.10625 -0.12125,0.12375 -0.85,1.045 -0.84625,1.22625 0,0.06125 0.8075,0.1675 0.8075,0.1675 l 0.24,-0.48875 c 0.31125,0.055 0.74375,-0.01375 0.74875,0.28875 0.01125,0.72625 -0.55125,0.43375 -0.5375,1.28125 l -0.495,0.0087 c -0.74375,0.01375 -1.5525,-0.21375 -1.53875,0.63375 m 8.8375,-0.63875 -1.17625,0.02125 -0.01125,-0.665 1.17625,-0.02125 z m -2.2275,-0.5725 c 0,0 -0.27375,2.18375 1.705,1.96625 l -0.305,0.2475 c -2.0425,0.15875 -1.705,-1.96625 -1.4,-2.21375 m -1.9475,3.4775 -1.28625,0.0225 0.01,0.54375 0.8675,-0.015 0.01375,0.7975 0.495,-0.01 z m 7.64125,-3.88625 c 0.93625,4.22 3.7275,4.35 3.7275,4.35 l 0.53625,-0.56625 c 0,0 -2.79,-0.13 -3.72625,-4.35 -0.22625,0.12875 -0.5375,0.56625 -0.5375,0.56625 m 5.015,-0.275 c -0.008,-0.48375 -0.07125,-0.60375 -0.1425,-1.1475 l -0.42625,0.4925 c -0.28375,-0.08625 -0.69625,-1.14625 -1.0575,-1.55625 l -0.77,0.135 c 0.325,0.96375 1.45375,1.24625 1.21875,2.0375 -0.03875,0.13 0.81,0.28875 1.1775,0.03875 m -20.515,32.11125 c -0.0063,-0.1825 -0.4375,-0.10625 -0.62375,-0.1 -0.2475,0.0087 -0.33875,0.58125 -0.5425,0.4425 -0.5075,-0.345 -1.08375,-0.87 -1.11,-1.59625 l -1.5475,0.055 c -0.015,-0.42375 -0.97875,-0.16125 -0.83625,0.41 0.18625,-0.0062 0.915,0.07125 0.91125,-0.05 0.64375,0.705 1.3275,0.74125 1.5925,1.21625 0.39625,0.7125 0.17625,1.5075 0.74625,1.85125 0.135,-1.4575 1.44625,-1.20125 1.41,-2.22875"
       id="path2670"
       style="fill:#000000;fill-opacity:1;fill-rule:nonzero;stroke:none" />
  </g>
</svg>
