<?xml version="1.0" encoding="UTF-8" standalone="no"?>
<svg
   xmlns:dc="http://purl.org/dc/elements/1.1/"
   xmlns:cc="http://creativecommons.org/ns#"
   xmlns:rdf="http://www.w3.org/1999/02/22-rdf-syntax-ns#"
   xmlns:svg="http://www.w3.org/2000/svg"
   xmlns="http://www.w3.org/2000/svg"
   xmlns:sodipodi="http://sodipodi.sourceforge.net/DTD/sodipodi-0.dtd"
   xmlns:inkscape="http://www.inkscape.org/namespaces/inkscape"
   id="svg1574"
   version="1.1"
   viewBox="0 0 152.40824 182.45698"
   height="182.45697mm"
   width="152.40823mm"
   sodipodi:docname="Pin_hydropower_color_v2.svg"
   inkscape:version="0.92.3 (2405546, 2018-03-11)">
  <sodipodi:namedview
     pagecolor="#ffffff"
     bordercolor="#666666"
     borderopacity="1"
     objecttolerance="10"
     gridtolerance="10"
     guidetolerance="10"
     inkscape:pageopacity="0"
     inkscape:pageshadow="2"
     inkscape:window-width="1920"
     inkscape:window-height="1031"
     id="namedview20"
     showgrid="false"
     inkscape:zoom="0.34338704"
     inkscape:cx="288.01555"
     inkscape:cy="318.80051"
     inkscape:window-x="0"
     inkscape:window-y="25"
     inkscape:window-maximized="1"
     inkscape:current-layer="layer1"
     fit-margin-top="0"
     fit-margin-left="0"
     fit-margin-right="0"
     fit-margin-bottom="0"
     inkscape:measure-start="0,0"
     inkscape:measure-end="0,0" />
  <defs
     id="defs1568" />
  <metadata
     id="metadata1571">
    <rdf:RDF>
      <cc:Work
         rdf:about="">
        <dc:format>image/svg+xml</dc:format>
        <dc:type
           rdf:resource="http://purl.org/dc/dcmitype/StillImage" />
        <dc:title></dc:title>
      </cc:Work>
    </rdf:RDF>
  </metadata>
  <g
     transform="translate(392.77194,-43.148404)"
     id="layer1">
    <path
       inkscape:connector-curvature="0"
       id="path4560"
       d="m -244.33245,119.35247 c 0,19.94726 -5.80084,33.94849 -17.73067,47.30323 -11.92982,13.35476 -48.86618,32.61238 -54.5047,54.98211 -6.09231,-22.34485 -42.25815,-41.60247 -54.26717,-54.96345 -12.00901,-13.36097 -17.9682,-27.37463 -17.9682,-47.32189 0,-39.894449 32.34087,-72.235316 72.23537,-72.235316 39.89449,0 72.23537,32.340857 72.23537,72.235316 z"
       style="opacity:1;fill:#1e90ff;fill-opacity:1;stroke:#ffffff;stroke-width:7.93750048;stroke-linecap:square;stroke-linejoin:round;stroke-miterlimit:4;stroke-dasharray:none;stroke-dashoffset:0;stroke-opacity:1;paint-order:markers stroke fill"
       sodipodi:nodetypes="sscssss" />
    <g
       id="g829">
      <path
         d="m -316.6742,142.31517 c -0.47715,0.33036 -0.61238,0.95884 -0.27958,1.4332 0.33207,0.47472 0.91527,0.49976 1.44782,0.23609 0,0 3.47775,-0.66002 4.71599,-1.28233 1.18829,-0.59766 5.39215,1.21957 8.05817,-0.52949 2.66998,-1.75084 13.12224,-16.09011 13.12224,-16.09011 0.36853,-0.39782 0.44252,-0.87472 0.1093,-1.3487 -0.33278,-0.47399 -0.94733,-0.6176 -1.42304,-0.2865 z"
         id="shape3-4"
         style="fill:#ffffff;fill-opacity:1;stroke-width:0.36376885"
         inkscape:connector-curvature="0" />
      <path
         d="m -316.61353,144.05018 c 0.52445,0.24551 1.1364,0.0481 1.38269,-0.47548 0.24659,-0.52222 -0.0228,-1.03535 -0.51685,-1.36347 0,0 -2.21077,-2.75696 -3.36646,-3.51021 -1.11135,-0.72425 -2.33023,-4.99278 -5.17549,-6.41383 -2.84929,-1.42211 -19.88598,-3.4186 -19.88598,-3.4186 -0.52882,-0.11879 -0.97917,0.0554 -1.22397,0.57979 -0.24552,0.52293 -0.064,1.12335 0.46125,1.36744 z"
         id="shape4-0"
         style="fill:#ffffff;fill-opacity:1;stroke-width:0.36376885"
         inkscape:connector-curvature="0" />
      <path
         d="m -315.07688,143.17843 c -0.0491,-0.57941 -0.53015,-1.01148 -1.11194,-0.96262 -0.5825,0.0492 -0.89552,0.5411 -0.9347,1.13508 0,0 -1.26352,3.43963 -1.34151,4.82413 -0.0743,1.33057 -3.77403,3.80059 -3.58401,6.99005 0.19075,3.19386 7.57187,19.62136 7.57187,19.62136 0.16293,0.51851 0.54295,0.82264 1.12473,0.77229 0.58179,-0.0507 1.01565,-0.51012 0.96548,-1.0899 z"
         id="shape5-5"
         style="fill:#ffffff;fill-opacity:1;stroke-width:0.36376885"
         inkscape:connector-curvature="0" />
      <path
         d="m -260.13309,94.50857 c -5.45654,0 -10.78865,-2.09052 -13.96945,-5.2964 -3.14769,3.20627 -8.16042,5.2964 -13.92107,5.2964 -5.82284,0 -10.93925,-2.09052 -14.12004,-5.2964 -3.14807,3.20627 -8.23573,5.2964 -13.99675,5.2964 -5.82211,0 -10.97707,-2.09052 -14.15823,-5.2964 -3.14769,3.20627 -8.25428,5.2964 -14.01493,5.2964 -5.82212,0 -11.18771,-2.09052 -14.36888,-5.2964 -3.14768,3.20588 -8.03491,5.2964 -14.21898,5.2964 v -4.82893 c 6.18407,0 10.14625,-3.609008 12.22226,-7.954186 0.60169,-1.259291 2.08295,-5.633727 2.08295,-5.633727 0,0 1.46417,4.366132 2.03238,5.633727 1.76573,3.937328 6.22953,7.954186 12.23136,7.954186 6,0 9.91124,-3.577908 12.0342,-7.954186 0.60931,-1.257117 1.98835,-5.633727 1.98835,-5.633727 0,0 1.35141,4.383485 1.98546,5.633727 2.23099,4.399408 6.20626,7.954186 12.20771,7.954186 6.00001,0 9.89525,-3.565648 12.02184,-7.954186 0.60968,-1.257117 1.98254,-5.633727 1.98254,-5.633727 0,0 1.3696,4.377345 1.9829,5.633727 2.07895,4.258018 6.20445,7.954186 12.20627,7.954186 5.99928,0 9.82466,-3.500901 12.02183,-7.954186 0.6184,-1.254932 1.98181,-5.633727 1.98181,-5.633727 0,0 1.15533,4.380948 1.78137,5.633727 2.13496,4.276818 6.54821,7.954186 12.00474,7.954186 v 4.82893 z"
         id="shape6-9"
         style="fill:#fffffb;fill-opacity:1;stroke-width:0.36376885"
         inkscape:connector-curvature="0" />
      <path
         d="m -278.67259,143.3296 c 0,-20.67901 -16.76354,-37.44267 -37.44271,-37.44267 -20.67906,0 -37.44273,16.76366 -37.44273,37.44267 0,20.67917 16.76367,37.44272 37.44273,37.44272 20.67917,0 37.44271,-16.76355 37.44271,-37.44272"
         stroke-miterlimit="2.00000000000"
         id="shape7-4"
         style="fill:none;stroke:#ffffff;stroke-width:3.63768816;stroke-linecap:butt;stroke-linejoin:miter;stroke-miterlimit:2;stroke-opacity:1"
         inkscape:connector-curvature="0" />
    </g>
  </g>
</svg>
