<?xml version="1.0" encoding="UTF-8" standalone="no"?>
<svg
   xmlns:dc="http://purl.org/dc/elements/1.1/"
   xmlns:cc="http://creativecommons.org/ns#"
   xmlns:rdf="http://www.w3.org/1999/02/22-rdf-syntax-ns#"
   xmlns:svg="http://www.w3.org/2000/svg"
   xmlns="http://www.w3.org/2000/svg"
   width="152.40822mm"
   height="182.45702mm"
   viewBox="0 0 152.40823 182.45703"
   version="1.1"
   id="svg1574">
  <defs
     id="defs1568" />
  <metadata
     id="metadata1571">
    <rdf:RDF>
      <cc:Work
         rdf:about="">
        <dc:format>image/svg+xml</dc:format>
        <dc:type
           rdf:resource="http://purl.org/dc/dcmitype/StillImage" />
        <dc:title></dc:title>
      </cc:Work>
    </rdf:RDF>
  </metadata>
  <g
     id="layer1"
     transform="translate(477.81769,127.01129)">
    <path
       style="opacity:1;fill:#a0522d;fill-opacity:1;stroke:#ffffff;stroke-width:7.93750048;stroke-linecap:square;stroke-linejoin:round;stroke-miterlimit:4;stroke-dasharray:none;stroke-dashoffset:0;stroke-opacity:1;paint-order:markers stroke fill"
       d="m -329.37821,-50.80719 c 0,19.947257 -5.80083,33.948487 -17.73066,47.3032366 -11.92983,13.354751 -48.86618,32.6123714 -54.50471,54.9821074 -6.0923,-22.344856 -42.25814,-41.6024764 -54.26716,-54.9634574 -12.00901,-13.3609696 -17.9682,-27.3746296 -17.9682,-47.3218866 0,-39.894483 32.34087,-72.23535 72.23536,-72.23535 39.89449,0 72.23537,32.340857 72.23537,72.23535 z"
       id="path4560" />
    <g
       transform="translate(-34.058281,-44.062749)"
       id="g4577">
      <path
         id="path6056"
         d="m -333.01745,11.235744 c 5.05932,-5.07046 7.02212,-21.0109197 5.99274,-22.04202 -1.02873,-1.03111 -16.9377,0.9349403 -21.99739,6.00468 -6.46008,6.47306 -9.69906,20.48663 -7.06956,23.12005 0.37209,0.37316 16.09655,-14.50451 16.95488,-14.41308 0.92297,0.0992 -9.33979,13.19778 -11.68004,14.97014 5.68764,-0.78141 14.14487,-3.97864 17.79937,-7.63977 z"
         style="fill:#ffffff;fill-opacity:1;stroke-width:0.33736664" />
      <path
         id="path6058"
         d="m -402.1505,11.235744 c -5.05976,-5.07046 -7.02224,-21.0109197 -5.99285,-22.04202 1.02871,-1.03111 16.93804,0.9349403 21.99813,6.00468 6.4599,6.47306 9.69929,20.48663 7.0704,23.12005 -0.37243,0.37316 -16.09722,-14.50451 -16.95588,-14.41308 -0.923,0.0992 9.34063,13.19778 11.68061,14.97014 -5.68912,-0.78141 -14.14585,-3.97864 -17.80041,-7.63977 z"
         style="fill:#ffffff;fill-opacity:1;stroke-width:0.33736664" />
      <path
         id="path6060"
         d="m -353.46582,-23.761956 c 0,-9.478032 -12.28035,-26.214964 -14.09282,-26.215301 -1.81182,0 -14.09285,16.737605 -14.09285,26.215301 0,12.09942 9.46239,28.23231 14.09285,28.23231 0.65605,0 1.42666,-28.63427 2.26333,-29.35216 0.90033,-0.77189 3.37359,21.08398 2.87085,24.93164006 4.32146,-6.05842006 8.95864,-16.96701006 8.95864,-23.81179006 z"
         style="fill:#ffffff;fill-opacity:1;stroke-width:0.33736664" />
      <path
         id="path6062"
         d="m -369.5573,40.471764 0.005,-65.25279 h 3.84286 l 0.006,65.25279 z"
         style="fill:#ffffff;fill-opacity:1;stroke-width:0.33736664" />
      <path
         id="path6064"
         d="m -368.89302,27.482674 28.47243,-24.77944 1.12774,1.22685 -26.9123,26.47715 z"
         style="fill:#ffffff;fill-opacity:1;stroke-width:0.33736664" />
      <path
         id="path6066"
         d="m -369.23116,30.407234 -26.91326,-26.47715 1.12777,-1.22685 28.47376,24.77944 z"
         style="fill:#ffffff;fill-opacity:1;stroke-width:0.33736664" />
      <path
         id="path6070"
         d="m -367.5553,-54.971969 c 12.79632,0 24.82647,4.983244 33.87465,14.031415 9.04818,9.048168 14.03142,21.078328 14.03142,33.874658 0,12.79632 -4.98324,24.82647 -14.03142,33.87465 -9.04818,9.04817 -21.07833,14.03142 -33.87465,14.03142 -12.79631,0 -24.82648,-4.98325 -33.87465,-14.03142 -9.04817,-9.04818 -14.03141,-21.07833 -14.03141,-33.87465 0,-12.79633 4.98324,-24.82649 14.03141,-33.874658 9.04817,-9.048171 21.07834,-14.031415 33.87465,-14.031415 m 0,-4.385764 c -28.87993,0 -52.29182,23.41189 -52.29182,52.291837 0,28.87994 23.41189,52.29183 52.29182,52.29183 28.87993,0 52.29183,-23.41189 52.29183,-52.29183 0,-28.879947 -23.4119,-52.291837 -52.29183,-52.291837 z"
         style="fill:#ffffff;fill-opacity:1;stroke-width:0.33736664" />
    </g>
  </g>
</svg>
