<?xml version="1.0" encoding="UTF-8" standalone="no"?>
<svg
   xmlns:dc="http://purl.org/dc/elements/1.1/"
   xmlns:cc="http://creativecommons.org/ns#"
   xmlns:rdf="http://www.w3.org/1999/02/22-rdf-syntax-ns#"
   xmlns:svg="http://www.w3.org/2000/svg"
   xmlns="http://www.w3.org/2000/svg"
   viewBox="0 0 168 83.000001"
   height="83"
   width="168"
   xml:space="preserve"
   id="svg2"
   version="1.1"><metadata
     id="metadata8"><rdf:RDF><cc:Work
         rdf:about=""><dc:format>image/svg+xml</dc:format><dc:type
           rdf:resource="http://purl.org/dc/dcmitype/StillImage" /><dc:title></dc:title></cc:Work></rdf:RDF></metadata><defs
     id="defs6"><clipPath
       id="clipPath20"
       clipPathUnits="userSpaceOnUse"><path
         id="path18"
         d="M 0,595.28 H 841.89 V 0 H 0 Z" /></clipPath></defs><g
     transform="matrix(1.3333333,0,0,-1.3333333,0,83.000005)"
     id="g10"><path
       id="path12"
       style="fill:#999c9c;fill-opacity:1;fill-rule:nonzero;stroke:none;stroke-width:0.23486912"
       d="m 97.178981,53.09484 h 8.710829 v 8.81159 h -8.710829 z" /><g
       transform="matrix(0.23486912,0,0,0.23486912,-33.960657,-38.90691)"
       id="g14"><g
         clip-path="url(#clipPath20)"
         id="g16"><g
           transform="translate(251.6211,228.9951)"
           id="g22"><path
             id="path24"
             style="fill:#192c4a;fill-opacity:1;fill-rule:nonzero;stroke:none"
             d="m 0,0 c 0,6.929 -4.298,8.707 -8.943,8.707 h -8.13 c 0.118,-3.518 0.156,-9.211 0.156,-17.727 0,-5.654 -0.078,-7.82 -0.194,-10.918 0.504,0.038 0.929,0.077 1.55,0.077 0.695,0 1.123,-0.039 1.779,-0.077 -0.075,2.014 -0.115,4.448 -0.115,6.653 0,2.29 -0.078,4.342 -0.116,5.342 0,0 0.659,-0.069 1.394,-0.107 1.816,-2.091 2.595,-3.059 4.489,-5.578 2.363,-3.136 3.02,-3.952 4.454,-6.31 0,0 1.316,0.077 2.051,0.077 0.696,0 1.625,-0.039 2.247,-0.077 -1.009,0.961 -3.294,4.021 -5.576,6.814 -1.86,2.319 -3.758,4.448 -4.88,4.99 0.582,-0.076 1.16,-0.114 1.513,-0.114 C -3.638,-8.248 0,-4.952 0,0 m -2.941,0.038 c 0,-3.021 -1.626,-5.807 -5.689,-5.807 -0.931,0 -3.876,-0.038 -5.462,-0.076 0.079,1.74 0.117,3.091 0.117,5.105 0,2.441 0,5.189 -0.117,6.432 h 5.189 c 3.949,0 5.962,-1.709 5.962,-5.654" /></g><g
           transform="translate(278.4365,234.2979)"
           id="g26"><path
             id="path28"
             style="fill:#192c4a;fill-opacity:1;fill-rule:nonzero;stroke:none"
             d="m 0,0 c 0,0 -0.038,1.046 -0.038,1.74 0,0.664 0,1.008 0.038,1.664 0,0 -5.536,-0.076 -8.981,-0.076 -2.982,0 -3.873,0 -7.626,0.076 0.19,-4.067 0.19,-8.821 0.19,-14.437 0,-5.539 -0.156,-14.208 -0.156,-14.208 0,0 5.266,0.077 8.134,0.077 2.903,0 8.166,-0.077 8.166,-0.077 0,0 -0.074,1.007 -0.074,1.663 0,0.619 0.074,1.473 0.074,1.473 -2.09,-0.077 -3.947,-0.114 -6.423,-0.114 -2.712,0 -5.967,-0.047 -6.93,-0.123 0.112,2.443 0.112,3.411 0.112,5.266 0,1.511 0,2.869 -0.112,4.722 1.894,-0.076 4.218,-0.114 6.93,-0.114 1.973,0 5.223,-0.114 5.223,-0.114 0,0 -0.074,0.931 -0.074,1.473 0,0.542 0.074,1.426 0.074,1.426 0,0 -3.134,-0.076 -5.07,-0.076 -2.751,0 -5.032,0 -7.005,-0.076 0.072,1.976 0.072,3.175 0.072,5.227 0,1.9 -0.038,3.212 -0.15,4.837 C -10.337,0.153 -9.1,0.153 -6.236,0.153 -3.833,0.153 -1.898,0.115 0,0" /></g><g
           transform="translate(292.208,237.7021)"
           id="g30"><path
             id="path32"
             style="fill:#192c4a;fill-opacity:1;fill-rule:nonzero;stroke:none"
             d="m 0,0 c -0.584,-0.039 -1.048,-0.039 -1.744,-0.039 -0.698,0 -1.081,0 -1.781,0.039 0.078,-3.327 0.234,-10.027 0.234,-15.406 0,-4.876 0,-8.592 -0.078,-13.24 0.578,0.039 1.043,0.078 1.703,0.078 0.578,0 1.004,-0.039 1.509,-0.078 -0.078,4.525 -0.078,8.318 -0.078,13.202 0,5.653 0.156,12.117 0.235,15.444" /></g><g
           transform="translate(531.7549,237.7021)"
           id="g34"><path
             id="path36"
             style="fill:#192c4a;fill-opacity:1;fill-rule:nonzero;stroke:none"
             d="m 0,0 c -0.587,-0.039 -1.045,-0.039 -1.747,-0.039 -0.694,0 -1.08,0 -1.778,0.039 0.076,-3.327 0.233,-10.027 0.233,-15.406 0,-4.876 0,-8.592 -0.08,-13.24 0.583,0.039 1.049,0.078 1.705,0.078 0.584,0 1.007,-0.039 1.515,-0.078 -0.08,4.525 -0.08,8.318 -0.08,13.202 C -0.232,-9.791 -0.08,-3.327 0,0" /></g><g
           transform="translate(565.459,237.7021)"
           id="g38"><path
             id="path40"
             style="fill:#192c4a;fill-opacity:1;fill-rule:nonzero;stroke:none"
             d="m 0,0 c -0.466,-0.039 -1.008,-0.076 -1.664,-0.076 -0.736,0 -1.201,0.037 -1.743,0.076 0.118,-2.053 0.229,-5.96 0.229,-10.142 0,-5.456 -0.073,-11.346 0.313,-14.169 L -3.06,-24.426 C -4.609,-21.365 -15.757,-3.678 -18.313,0 c 0,0 -0.889,-0.076 -1.473,-0.076 -0.656,0 -1.007,0.037 -1.663,0.076 0.194,-5.533 0.194,-8.669 0.194,-14.285 0,-5.615 -0.038,-8.553 -0.118,-14.361 0.504,0.039 1.045,0.078 1.663,0.078 0.626,0 1.084,-0.039 1.706,-0.078 -0.08,4.06 -0.08,7.7 -0.08,10.919 0,5.22 -0.153,9.44 -0.424,12.927 0,0 0.08,0.038 0.195,0.076 2.052,-3.983 11.575,-18.351 15.794,-23.922 0.504,0.039 0.97,0.078 1.397,0.078 0.428,0 0.694,-0.039 1.084,-0.078 -0.118,4.488 -0.118,8.089 -0.118,11.958 0,6.508 -0.042,9.835 0.156,16.688" /></g><g
           transform="translate(594.0918,234.2979)"
           id="g42"><path
             id="path44"
             style="fill:#192c4a;fill-opacity:1;fill-rule:nonzero;stroke:none"
             d="m 0,0 c 0,0 -0.041,1.046 -0.041,1.74 0,0.664 0,1.008 0.041,1.664 0,0 -5.535,-0.076 -8.984,-0.076 -2.976,0 -3.87,0 -7.623,0.076 0.191,-4.067 0.191,-8.821 0.191,-14.437 0,-5.539 -0.153,-14.208 -0.153,-14.208 0,0 5.265,0.077 8.131,0.077 2.903,0 8.164,-0.077 8.164,-0.077 0,0 -0.073,1.007 -0.073,1.663 0,0.619 0.073,1.473 0.073,1.473 -2.087,-0.077 -3.945,-0.114 -6.421,-0.114 -2.713,0 -5.967,-0.047 -6.933,-0.123 0.114,2.443 0.114,3.411 0.114,5.266 0,1.511 0,2.869 -0.114,4.722 1.897,-0.076 4.22,-0.114 6.933,-0.114 1.972,0 5.222,-0.114 5.222,-0.114 0,0 -0.072,0.931 -0.072,1.473 0,0.542 0.072,1.426 0.072,1.426 0,0 -3.131,-0.076 -5.07,-0.076 -2.747,0 -5.032,0 -7.005,-0.076 0.073,1.976 0.073,3.175 0.073,5.227 0,1.9 -0.039,3.212 -0.153,4.837 3.293,-0.076 4.529,-0.076 7.399,-0.076 C -3.834,0.153 -1.899,0.115 0,0" /></g><g
           transform="translate(384.208,255.084)"
           id="g46"><path
             id="path48"
             style="fill:#072747;fill-opacity:1;fill-rule:nonzero;stroke:none"
             d="M 0,0 V 41.403 L -72.815,69 h 24.078 c 14.974,0 26.717,5.58 35.523,16.738 7.932,9.981 11.745,22.021 11.745,36.704 0,14.088 -3.813,26.421 -11.745,36.404 -8.806,10.865 -20.549,16.443 -35.523,16.443 h -99.538 V 138.291 H -55.2 c 4.402,0 7.931,-1.761 10.28,-4.992 2.346,-2.934 3.523,-6.752 3.523,-10.857 0,-10.28 -4.403,-15.564 -13.803,-15.564 h -47.268 c -14.682,0 -26.132,-4.408 -34.358,-13.51 -7.632,-8.807 -11.449,-20.551 -11.449,-35.231 V 0 h 38.173 v 43.454 z" /></g><g
           transform="translate(492.9385,255.1523)"
           id="g50"><path
             id="path52"
             style="fill:#999c9c;fill-opacity:1;fill-rule:nonzero;stroke:none"
             d="m 0,0 v 37.876 h 21.469 c 9.389,0 17.027,1.172 22.903,3.523 8.512,3.226 14.383,9.685 17.316,19.666 2.057,6.169 2.943,15.566 2.943,27.603 v 22.46 h 38.751 V 84.266 C 103.382,56.37 97.511,35.815 85.767,22.015 73.139,7.333 53.177,0 25.871,0 Z" /></g><g
           transform="translate(492.9922,255.1221)"
           id="g54"><path
             id="path56"
             style="fill:#072747;fill-opacity:1;fill-rule:nonzero;stroke:none"
             d="m 0,0 v 37.934 h -20.365 c -9.409,0 -17.055,1.175 -22.934,3.532 -8.527,3.225 -14.41,9.696 -17.347,19.694 -2.061,6.177 -2.947,15.587 -2.947,27.64 v 86.739 h -38.806 v -91.15 c 0,-27.933 5.878,-48.518 17.639,-62.329 C -72.117,7.348 -52.124,0 -24.776,0 Z" /></g><g
           transform="translate(325.9111,237.7021)"
           id="g58"><path
             id="path60"
             style="fill:#192c4a;fill-opacity:1;fill-rule:nonzero;stroke:none"
             d="m 0,0 c -0.465,-0.039 -1.005,-0.076 -1.665,-0.076 -0.734,0 -1.2,0.037 -1.741,0.076 0.116,-2.053 0.234,-5.96 0.234,-10.142 0,-5.456 -0.078,-11.346 0.307,-14.169 L -3.06,-24.426 C -4.606,-21.365 -15.757,-3.678 -18.311,0 c 0,0 -0.891,-0.076 -1.472,-0.076 -0.656,0 -1.006,0.037 -1.666,0.076 0.196,-5.533 0.196,-8.669 0.196,-14.285 0,-5.615 -0.039,-8.553 -0.118,-14.361 0.504,0.039 1.048,0.078 1.666,0.078 0.62,0 1.085,-0.039 1.701,-0.078 -0.076,4.06 -0.076,7.7 -0.076,10.919 0,5.22 -0.152,9.44 -0.428,12.927 0,0 0.079,0.038 0.197,0.076 2.05,-3.983 11.576,-18.351 15.795,-23.922 0.503,0.039 0.969,0.078 1.395,0.078 0.425,0 0.694,-0.039 1.081,-0.078 -0.116,4.488 -0.116,8.089 -0.116,11.958 0,6.508 -0.036,9.835 0.156,16.688" /></g><g
           transform="translate(354.5469,234.2979)"
           id="g62"><path
             id="path64"
             style="fill:#192c4a;fill-opacity:1;fill-rule:nonzero;stroke:none"
             d="m 0,0 c 0,0 -0.04,1.046 -0.04,1.74 0,0.664 0,1.008 0.04,1.664 0,0 -5.536,-0.076 -8.983,-0.076 -2.98,0 -3.871,0 -7.624,0.076 0.19,-4.067 0.19,-8.821 0.19,-14.437 0,-5.539 -0.152,-14.208 -0.152,-14.208 0,0 5.262,0.077 8.13,0.077 2.903,0 8.168,-0.077 8.168,-0.077 0,0 -0.079,1.007 -0.079,1.663 0,0.619 0.079,1.473 0.079,1.473 -2.092,-0.077 -3.949,-0.114 -6.43,-0.114 -2.707,0 -5.962,-0.047 -6.927,-0.123 0.114,2.443 0.114,3.411 0.114,5.266 0,1.511 0,2.869 -0.114,4.722 1.896,-0.076 4.22,-0.114 6.927,-0.114 1.977,0 5.228,-0.114 5.228,-0.114 0,0 -0.078,0.931 -0.078,1.473 0,0.542 0.078,1.426 0.078,1.426 0,0 -3.134,-0.076 -5.072,-0.076 -2.745,0 -5.032,0 -7.009,-0.076 0.078,1.976 0.078,3.175 0.078,5.227 0,1.9 -0.038,3.212 -0.152,4.837 C -10.338,0.153 -9.1,0.153 -6.236,0.153 -3.832,0.153 -1.9,0.115 0,0" /></g><g
           transform="translate(383.7031,228.9951)"
           id="g66"><path
             id="path68"
             style="fill:#192c4a;fill-opacity:1;fill-rule:nonzero;stroke:none"
             d="m 0,0 c 0,6.929 -4.298,8.707 -8.943,8.707 h -8.13 c 0.118,-3.518 0.156,-9.211 0.156,-17.727 0,-5.654 -0.078,-7.82 -0.194,-10.918 0.503,0.038 0.928,0.077 1.547,0.077 0.698,0 1.125,-0.039 1.781,-0.077 -0.078,2.014 -0.118,4.448 -0.118,6.653 0,2.29 -0.075,4.342 -0.113,5.342 0,0 0.657,-0.069 1.391,-0.107 1.82,-2.091 2.598,-3.059 4.492,-5.578 2.363,-3.136 3.02,-3.952 4.455,-6.31 0,0 1.316,0.077 2.05,0.077 0.696,0 1.626,-0.039 2.247,-0.077 -1.009,0.961 -3.294,4.021 -5.575,6.814 -1.86,2.319 -3.759,4.448 -4.88,4.99 0.582,-0.076 1.162,-0.114 1.513,-0.114 C -3.642,-8.248 0,-4.952 0,0 m -2.941,0.038 c 0,-3.021 -1.626,-5.807 -5.694,-5.807 -0.928,0 -3.87,-0.038 -5.457,-0.076 0.078,1.74 0.116,3.091 0.116,5.105 0,2.441 0,5.189 -0.116,6.432 h 5.189 c 3.949,0 5.962,-1.709 5.962,-5.654" /></g><g
           transform="translate(420.2412,212.3076)"
           id="g70"><path
             id="path72"
             style="fill:#192c4a;fill-opacity:1;fill-rule:nonzero;stroke:none"
             d="m 0,0 c -0.967,-0.115 -2.827,-0.115 -5.383,-0.115 -3.329,0 -5.574,-0.037 -8.053,-0.16 0,2.984 0.079,5.502 0.079,9.027 0,6.501 0.118,14.124 0.197,16.649 -0.622,-0.083 -1.048,-0.083 -1.744,-0.083 -0.62,0 -0.891,0.037 -1.629,0.083 0.118,-4.151 0.196,-10.377 0.196,-16.687 0,-4.693 -0.078,-7.318 -0.156,-11.965 3.601,0.038 5.226,0.077 8.209,0.077 2.863,0 8.246,-0.077 8.246,-0.077 -0.04,0.847 -0.04,1.046 -0.04,1.626 0,0.693 0,0.961 0.078,1.625" /></g><g
           transform="translate(444.9658,234.2979)"
           id="g74"><path
             id="path76"
             style="fill:#192c4a;fill-opacity:1;fill-rule:nonzero;stroke:none"
             d="m 0,0 c 0,0 -0.038,1.046 -0.038,1.74 0,0.664 0,1.008 0.038,1.664 0,0 -5.54,-0.076 -8.981,-0.076 -2.984,0 -3.876,0 -7.63,0.076 0.194,-4.067 0.194,-8.821 0.194,-14.437 0,-5.539 -0.152,-14.208 -0.152,-14.208 0,0 5.26,0.077 8.13,0.077 2.899,0 8.168,-0.077 8.168,-0.077 0,0 -0.08,1.007 -0.08,1.663 0,0.619 0.08,1.473 0.08,1.473 -2.09,-0.077 -3.949,-0.114 -6.428,-0.114 -2.709,0 -5.964,-0.047 -6.929,-0.123 0.114,2.443 0.114,3.411 0.114,5.266 0,1.511 0,2.869 -0.114,4.722 1.893,-0.076 4.22,-0.114 6.929,-0.114 1.975,0 5.226,-0.114 5.226,-0.114 0,0 -0.076,0.931 -0.076,1.473 0,0.542 0.076,1.426 0.076,1.426 0,0 -3.135,-0.076 -5.074,-0.076 -2.747,0 -5.028,0 -7.005,-0.076 0.076,1.976 0.076,3.175 0.076,5.227 0,1.9 -0.038,3.212 -0.152,4.837 3.289,-0.076 4.525,-0.076 7.395,-0.076 C -3.834,0.153 -1.899,0.115 0,0" /></g><g
           transform="translate(483.4385,209.0566)"
           id="g78"><path
             id="path80"
             style="fill:#192c4a;fill-opacity:1;fill-rule:nonzero;stroke:none"
             d="m 0,0 c -0.038,3.525 -0.152,8.089 -0.152,12.773 0,5.617 0,11.423 0.152,15.833 -0.809,-0.037 -1.037,-0.037 -1.625,-0.037 -0.542,0 -0.927,0.037 -1.431,0.077 C -7.195,20.29 -11.263,10.843 -14.017,3.365 h -0.191 c -2.746,7.318 -6.463,16.261 -10.991,25.281 0,0 -0.931,-0.077 -1.435,-0.077 -0.656,0 -1.004,0 -1.625,0.077 0.08,-3.908 0.08,-9.875 0.08,-15.635 0,-4.922 -0.038,-9.722 -0.08,-13.011 0.385,0.038 1.049,0.077 1.705,0.077 0.58,0 1.237,-0.039 1.511,-0.077 -0.118,2.747 -0.118,6.54 -0.118,10.454 0,5.143 0,10.529 -0.386,13.934 h 0.153 c 1.858,-6.35 8.63,-20.825 10.415,-24.388 0.348,0.038 0.504,0.077 0.851,0.077 0.348,0 0.504,-0.039 0.852,-0.077 1.781,3.487 8.553,17.848 10.415,24.388 l 0.153,-0.039 C -3.098,20.823 -3.174,15.33 -3.174,10.142 -3.174,6.272 -3.212,2.595 -3.326,0 -2.472,0.038 -2.129,0.077 -1.473,0.077 -0.969,0.077 -0.503,0.038 0,0" /></g><g
           transform="translate(517.6387,223.5693)"
           id="g82"><path
             id="path84"
             style="fill:#192c4a;fill-opacity:1;fill-rule:nonzero;stroke:none"
             d="m 0,0 c 0,8.943 -4.566,14.521 -12.701,14.521 -8.126,0 -12.697,-5.654 -12.697,-14.521 0,-8.98 4.956,-15.215 12.697,-15.215 C -4.952,-15.215 0,-8.98 0,0 m -2.899,0.084 c 0,-7.05 -3.488,-12.201 -9.802,-12.201 -6.307,0 -9.79,5.151 -9.79,12.201 0,7.196 3.483,11.187 9.79,11.187 6.314,0 9.802,-3.991 9.802,-11.187" /></g><g
           transform="translate(238.0962,195.6191)"
           id="g86"><path
             id="path88"
             style="fill:#999c9c;fill-opacity:1;fill-rule:nonzero;stroke:none"
             d="m 0,0 c -0.589,-0.038 -1.062,-0.038 -1.774,-0.038 -0.706,0 -1.101,0 -1.812,0.038 0.078,-3.388 0.238,-10.209 0.238,-15.68 0,-4.967 0,-8.753 -0.078,-13.475 0.59,0.038 1.062,0.076 1.73,0.076 0.593,0 1.029,-0.038 1.539,-0.076 -0.082,4.608 -0.082,8.469 -0.082,13.436 0,5.754 0.161,12.331 0.239,15.719 m 33.528,0 c -0.473,-0.038 -1.024,-0.076 -1.692,-0.076 -0.75,0 -1.223,0.038 -1.774,0.076 0.118,-2.09 0.235,-6.065 0.235,-10.323 0,-5.556 -0.079,-11.545 0.316,-14.422 l -0.194,-0.114 C 28.839,-21.746 17.495,-3.746 14.893,0 c 0,0 -0.906,-0.076 -1.496,-0.076 -0.669,0 -1.024,0.038 -1.696,0.076 0.199,-5.631 0.199,-8.828 0.199,-14.535 0,-5.716 -0.039,-8.715 -0.121,-14.62 0.512,0.038 1.067,0.076 1.696,0.076 0.628,0 1.101,-0.038 1.734,-0.076 -0.078,4.135 -0.078,7.836 -0.078,11.109 0,5.318 -0.16,9.614 -0.433,13.155 0,0 0.078,0.038 0.195,0.084 2.09,-4.059 11.779,-18.679 16.075,-24.348 0.513,0.038 0.987,0.076 1.419,0.076 0.434,0 0.708,-0.038 1.101,-0.076 -0.116,4.57 -0.116,8.233 -0.116,12.17 0,6.624 -0.039,10.011 0.156,16.985 m 27.304,-20.846 c 0,4.296 -2.52,6.067 -8.708,7.486 -5.082,1.182 -6.145,2.327 -6.145,5.005 0,3.312 2.402,5.479 6.74,5.479 3.23,0 5.555,-0.596 7.564,-2.487 0.116,1.067 0.238,2.013 0.47,2.96 -1.573,1.93 -4.448,2.8 -7.761,2.8 -6.107,0 -10.006,-3.51 -10.006,-8.553 0,-4.022 1.263,-6.189 8.943,-7.883 4.768,-1.061 5.912,-2.441 5.912,-4.883 0,-3.473 -2.248,-5.479 -6.345,-5.479 -2.876,0 -5.635,0.794 -7.247,2.251 -0.122,-1.183 -0.2,-2.174 -0.477,-2.96 1.145,-1.298 4.06,-2.443 7.489,-2.443 5.947,0 9.571,3.824 9.571,8.707 m 28.173,17.458 c -0.04,0.786 -0.078,1.137 -0.078,1.733 0,0.71 0,0.908 0.078,1.655 -1.97,-0.038 -6.579,-0.076 -10.795,-0.076 -4.253,0 -8.157,0.038 -10.955,0.076 0.119,-0.671 0.119,-0.907 0.119,-1.617 0,-0.634 0,-0.901 -0.079,-1.771 1.656,0.115 3.113,0.154 4.493,0.154 1.852,0 3.704,0.045 5.16,0.16 -0.236,-3.389 -0.316,-7.845 -0.316,-12.53 0,-5.28 -0.078,-8.707 -0.118,-13.551 0.552,0.038 1.025,0.076 1.656,0.076 0.63,0 1.025,-0.038 1.615,-0.076 -0.039,4.883 -0.118,8.271 -0.118,13.551 0,4.685 -0.078,9.065 -0.316,12.53 1.261,-0.16 3.508,-0.16 5.082,-0.16 1.419,0 3.232,-0.039 4.572,-0.154 M 100.548,0 c -0.589,-0.038 -1.062,-0.038 -1.771,-0.038 -0.708,0 -1.104,0 -1.815,0.038 0.079,-3.388 0.239,-10.209 0.239,-15.68 0,-4.967 0,-8.753 -0.078,-13.475 0.589,0.038 1.062,0.076 1.732,0.076 0.593,0 1.026,-0.038 1.537,-0.076 -0.078,4.608 -0.078,8.469 -0.078,13.436 0,5.754 0.156,12.331 0.234,15.719 m 29.67,-3.388 c -0.041,0.786 -0.078,1.137 -0.078,1.733 0,0.71 0,0.908 0.078,1.655 -1.968,-0.038 -6.58,-0.076 -10.796,-0.076 -4.254,0 -8.157,0.038 -10.953,0.076 0.12,-0.671 0.12,-0.907 0.12,-1.617 0,-0.634 0,-0.901 -0.082,-1.771 1.658,0.115 3.114,0.154 4.493,0.154 1.852,0 3.705,0.045 5.162,0.16 -0.235,-3.389 -0.317,-7.845 -0.317,-12.53 0,-5.28 -0.078,-8.707 -0.118,-13.551 0.551,0.038 1.024,0.076 1.657,0.076 0.628,0 1.023,-0.038 1.615,-0.076 -0.041,4.883 -0.119,8.271 -0.119,13.551 0,4.685 -0.078,9.065 -0.317,12.53 1.263,-0.16 3.509,-0.16 5.084,-0.16 1.418,0 3.229,-0.039 4.571,-0.154 M 159.295,0 c -0.588,-0.038 -1.022,-0.076 -1.655,-0.076 -0.668,0 -1.024,0.038 -1.692,0.076 0.156,-3.51 0.194,-13.796 0.194,-17.023 0,-6.776 -2.323,-9.691 -7.878,-9.691 -5.516,0 -7.881,2.915 -7.881,9.691 0,6.539 0.078,14.147 0.195,17.023 0,0 -0.906,-0.076 -1.457,-0.076 -0.706,0 -1.141,0 -1.891,0.076 0.116,-3.388 0.198,-10.407 0.198,-17.138 0,-7.447 3.232,-12.727 10.836,-12.727 7.564,0 10.833,5.28 10.833,12.727 0,6.731 0.082,13.712 0.198,17.138 m 28.686,-3.388 c -0.042,0.786 -0.081,1.137 -0.081,1.733 0,0.71 0,0.908 0.081,1.655 -1.973,-0.038 -6.58,-0.076 -10.796,-0.076 -4.258,0 -8.156,0.038 -10.955,0.076 0.118,-0.671 0.118,-0.907 0.118,-1.617 0,-0.634 0,-0.901 -0.078,-1.771 1.651,0.115 3.113,0.154 4.488,0.154 1.853,0 3.703,0.045 5.164,0.16 -0.238,-3.389 -0.314,-7.845 -0.314,-12.53 0,-5.28 -0.078,-8.707 -0.118,-13.551 0.551,0.038 1.024,0.076 1.651,0.076 0.634,0 1.028,-0.038 1.618,-0.076 -0.038,4.883 -0.116,8.271 -0.116,13.551 0,4.685 -0.082,9.065 -0.317,12.53 1.261,-0.16 3.505,-0.16 5.082,-0.16 1.418,0 3.233,-0.039 4.573,-0.154" /></g></g></g></g></svg>